<mxfile host="app.diagrams.net" modified="2023-09-22T16:01:44.304Z" agent="Mozilla/5.0 (Macintosh; Intel Mac OS X 10_15_7) AppleWebKit/537.36 (KHTML, like Gecko) Chrome/117.0.0.0 Safari/537.36" etag="b47_qC-xXx5JAENADBpL" version="21.8.0" type="device" pages="4">
  <diagram name="Sign In &amp; Sign Up" id="IRRILIhM7_jVWzZIzl2v">
    <mxGraphModel dx="1468" dy="900" grid="0" gridSize="10" guides="1" tooltips="1" connect="1" arrows="1" fold="1" page="1" pageScale="1" pageWidth="1100" pageHeight="850" background="#8294C4" math="0" shadow="0">
      <root>
        <mxCell id="0" />
        <mxCell id="1" parent="0" />
        <mxCell id="QwL18J_q-RxOLkEPr-Up-1" value="&lt;h2&gt;&lt;b&gt;Features Requirements&lt;/b&gt;&lt;/h2&gt;&lt;ol style=&quot;line-height: 150%;&quot;&gt;&lt;li&gt;User can sign in&lt;/li&gt;&lt;li&gt;User can sign up&lt;/li&gt;&lt;li&gt;User can post a tweet&lt;/li&gt;&lt;li&gt;User can upload a picture&lt;/li&gt;&lt;li&gt;User can like tweet from other users&lt;/li&gt;&lt;li&gt;User can see active users list (optional)&lt;/li&gt;&lt;li&gt;Pagination&lt;/li&gt;&lt;li&gt;Menu to redirect to Admin panel&lt;/li&gt;&lt;/ol&gt;" style="text;align=left;html=1;verticalAlign=top;whiteSpace=wrap;rounded=0;labelBackgroundColor=none;spacingTop=0;spacing=2;spacingBottom=0;fillStyle=auto;glass=0;shadow=0;labelBorderColor=none;spacingLeft=8;spacingRight=8;movable=1;resizable=1;rotatable=1;deletable=1;editable=1;locked=0;connectable=1;fillColor=#ACB1D6;strokeColor=none;" parent="1" vertex="1">
          <mxGeometry x="40" y="40" width="280" height="220" as="geometry" />
        </mxCell>
        <mxCell id="cGtCeVhmhqgJOxPGAnX_-8" value="" style="group;labelBackgroundColor=none;fontColor=#FFFFFF;" parent="1" vertex="1" connectable="0">
          <mxGeometry x="355" y="115" width="390" height="620" as="geometry" />
        </mxCell>
        <mxCell id="QwL18J_q-RxOLkEPr-Up-2" value="Start" style="rounded=1;whiteSpace=wrap;html=1;labelBackgroundColor=none;fillColor=#182E3E;strokeColor=#ACB1D6;fontColor=#FFFFFF;" parent="cGtCeVhmhqgJOxPGAnX_-8" vertex="1">
          <mxGeometry x="35" width="120" height="60" as="geometry" />
        </mxCell>
        <mxCell id="QwL18J_q-RxOLkEPr-Up-5" value="Have an&lt;br&gt;account?" style="rhombus;html=1;rounded=1;whiteSpace=wrap;labelBackgroundColor=none;fillColor=#182E3E;strokeColor=#ACB1D6;fontColor=#FFFFFF;" parent="cGtCeVhmhqgJOxPGAnX_-8" vertex="1">
          <mxGeometry x="35" y="130" width="120" height="80" as="geometry" />
        </mxCell>
        <mxCell id="QwL18J_q-RxOLkEPr-Up-6" value="" style="edgeStyle=orthogonalEdgeStyle;rounded=0;orthogonalLoop=1;jettySize=auto;html=1;labelBackgroundColor=none;fontColor=default;strokeColor=#23445D;" parent="cGtCeVhmhqgJOxPGAnX_-8" source="QwL18J_q-RxOLkEPr-Up-2" target="QwL18J_q-RxOLkEPr-Up-5" edge="1">
          <mxGeometry relative="1" as="geometry" />
        </mxCell>
        <mxCell id="QwL18J_q-RxOLkEPr-Up-7" value="Sign In" style="whiteSpace=wrap;html=1;rounded=1;labelBackgroundColor=none;fillColor=#182E3E;strokeColor=#ACB1D6;fontColor=#FFFFFF;" parent="cGtCeVhmhqgJOxPGAnX_-8" vertex="1">
          <mxGeometry x="35" y="280" width="120" height="60" as="geometry" />
        </mxCell>
        <mxCell id="QwL18J_q-RxOLkEPr-Up-8" value="" style="edgeStyle=orthogonalEdgeStyle;rounded=0;orthogonalLoop=1;jettySize=auto;html=1;labelBackgroundColor=none;fontColor=default;strokeColor=#23445D;" parent="cGtCeVhmhqgJOxPGAnX_-8" source="QwL18J_q-RxOLkEPr-Up-5" target="QwL18J_q-RxOLkEPr-Up-7" edge="1">
          <mxGeometry relative="1" as="geometry" />
        </mxCell>
        <mxCell id="cGtCeVhmhqgJOxPGAnX_-2" value="&lt;font color=&quot;#000000&quot;&gt;Yes&lt;/font&gt;" style="edgeLabel;html=1;align=center;verticalAlign=middle;resizable=0;points=[];labelBackgroundColor=none;fontColor=#FFFFFF;labelBorderColor=none;" parent="QwL18J_q-RxOLkEPr-Up-8" vertex="1" connectable="0">
          <mxGeometry x="-0.1347" y="1" relative="1" as="geometry">
            <mxPoint x="11" as="offset" />
          </mxGeometry>
        </mxCell>
        <mxCell id="QwL18J_q-RxOLkEPr-Up-10" value="Sign Up" style="whiteSpace=wrap;html=1;rounded=1;labelBackgroundColor=none;fillColor=#182E3E;strokeColor=#ACB1D6;fontColor=#FFFFFF;" parent="cGtCeVhmhqgJOxPGAnX_-8" vertex="1">
          <mxGeometry x="235" y="140" width="120" height="60" as="geometry" />
        </mxCell>
        <mxCell id="QwL18J_q-RxOLkEPr-Up-11" value="" style="edgeStyle=orthogonalEdgeStyle;rounded=0;orthogonalLoop=1;jettySize=auto;html=1;labelBackgroundColor=none;fontColor=default;strokeColor=#23445D;" parent="cGtCeVhmhqgJOxPGAnX_-8" source="QwL18J_q-RxOLkEPr-Up-5" target="QwL18J_q-RxOLkEPr-Up-10" edge="1">
          <mxGeometry relative="1" as="geometry" />
        </mxCell>
        <mxCell id="cGtCeVhmhqgJOxPGAnX_-3" value="&lt;font color=&quot;#000000&quot;&gt;No&lt;/font&gt;" style="edgeLabel;html=1;align=center;verticalAlign=middle;resizable=0;points=[];labelBackgroundColor=none;fontColor=#FFFFFF;" parent="QwL18J_q-RxOLkEPr-Up-11" vertex="1" connectable="0">
          <mxGeometry x="-0.15" y="-2" relative="1" as="geometry">
            <mxPoint y="5" as="offset" />
          </mxGeometry>
        </mxCell>
        <mxCell id="QwL18J_q-RxOLkEPr-Up-15" value="" style="edgeStyle=orthogonalEdgeStyle;rounded=0;orthogonalLoop=1;jettySize=auto;html=1;labelBackgroundColor=none;fontColor=default;strokeColor=#23445D;" parent="cGtCeVhmhqgJOxPGAnX_-8" source="QwL18J_q-RxOLkEPr-Up-13" target="QwL18J_q-RxOLkEPr-Up-7" edge="1">
          <mxGeometry relative="1" as="geometry" />
        </mxCell>
        <mxCell id="cGtCeVhmhqgJOxPGAnX_-6" value="&lt;font color=&quot;#000000&quot;&gt;Yes&lt;/font&gt;" style="edgeLabel;html=1;align=center;verticalAlign=middle;resizable=0;points=[];labelBackgroundColor=none;fontColor=#FFFFFF;" parent="QwL18J_q-RxOLkEPr-Up-15" vertex="1" connectable="0">
          <mxGeometry x="-0.1308" y="1" relative="1" as="geometry">
            <mxPoint y="5" as="offset" />
          </mxGeometry>
        </mxCell>
        <mxCell id="QwL18J_q-RxOLkEPr-Up-17" style="edgeStyle=orthogonalEdgeStyle;rounded=0;orthogonalLoop=1;jettySize=auto;html=1;entryX=1;entryY=0.5;entryDx=0;entryDy=0;labelBackgroundColor=none;fontColor=default;strokeColor=#23445D;" parent="cGtCeVhmhqgJOxPGAnX_-8" source="QwL18J_q-RxOLkEPr-Up-13" target="QwL18J_q-RxOLkEPr-Up-10" edge="1">
          <mxGeometry relative="1" as="geometry">
            <Array as="points">
              <mxPoint x="390" y="310" />
              <mxPoint x="390" y="170" />
            </Array>
          </mxGeometry>
        </mxCell>
        <mxCell id="cGtCeVhmhqgJOxPGAnX_-7" value="&lt;font color=&quot;#000000&quot;&gt;No&lt;/font&gt;" style="edgeLabel;html=1;align=center;verticalAlign=middle;resizable=0;points=[];labelBackgroundColor=none;fontColor=#FFFFFF;" parent="QwL18J_q-RxOLkEPr-Up-17" vertex="1" connectable="0">
          <mxGeometry x="-0.8686" relative="1" as="geometry">
            <mxPoint x="3" y="7" as="offset" />
          </mxGeometry>
        </mxCell>
        <mxCell id="QwL18J_q-RxOLkEPr-Up-13" value="Sign Up&lt;br&gt;success?" style="rhombus;whiteSpace=wrap;html=1;rounded=1;labelBackgroundColor=none;fillColor=#182E3E;strokeColor=#ACB1D6;fontColor=#FFFFFF;" parent="cGtCeVhmhqgJOxPGAnX_-8" vertex="1">
          <mxGeometry x="235" y="270" width="120" height="80" as="geometry" />
        </mxCell>
        <mxCell id="QwL18J_q-RxOLkEPr-Up-14" value="" style="edgeStyle=orthogonalEdgeStyle;rounded=0;orthogonalLoop=1;jettySize=auto;html=1;labelBackgroundColor=none;fontColor=default;strokeColor=#23445D;" parent="cGtCeVhmhqgJOxPGAnX_-8" source="QwL18J_q-RxOLkEPr-Up-10" target="QwL18J_q-RxOLkEPr-Up-13" edge="1">
          <mxGeometry relative="1" as="geometry" />
        </mxCell>
        <mxCell id="QwL18J_q-RxOLkEPr-Up-26" style="edgeStyle=orthogonalEdgeStyle;rounded=0;orthogonalLoop=1;jettySize=auto;html=1;entryX=0;entryY=0.5;entryDx=0;entryDy=0;labelBackgroundColor=none;fontColor=default;strokeColor=#23445D;" parent="cGtCeVhmhqgJOxPGAnX_-8" source="QwL18J_q-RxOLkEPr-Up-21" target="QwL18J_q-RxOLkEPr-Up-7" edge="1">
          <mxGeometry relative="1" as="geometry">
            <Array as="points">
              <mxPoint y="450" />
              <mxPoint y="310" />
            </Array>
          </mxGeometry>
        </mxCell>
        <mxCell id="cGtCeVhmhqgJOxPGAnX_-5" value="&lt;font color=&quot;#000000&quot;&gt;No&lt;/font&gt;" style="edgeLabel;html=1;align=center;verticalAlign=middle;resizable=0;points=[];labelBackgroundColor=none;fontColor=#FFFFFF;" parent="QwL18J_q-RxOLkEPr-Up-26" vertex="1" connectable="0">
          <mxGeometry x="-0.882" y="-1" relative="1" as="geometry">
            <mxPoint x="-5" y="8" as="offset" />
          </mxGeometry>
        </mxCell>
        <mxCell id="QwL18J_q-RxOLkEPr-Up-21" value="Sign In&lt;br&gt;success?" style="rhombus;whiteSpace=wrap;html=1;rounded=1;labelBackgroundColor=none;fillColor=#182E3E;strokeColor=#ACB1D6;fontColor=#FFFFFF;" parent="cGtCeVhmhqgJOxPGAnX_-8" vertex="1">
          <mxGeometry x="35" y="410" width="120" height="80" as="geometry" />
        </mxCell>
        <mxCell id="QwL18J_q-RxOLkEPr-Up-22" value="" style="edgeStyle=orthogonalEdgeStyle;rounded=0;orthogonalLoop=1;jettySize=auto;html=1;labelBackgroundColor=none;fontColor=default;strokeColor=#23445D;" parent="cGtCeVhmhqgJOxPGAnX_-8" source="QwL18J_q-RxOLkEPr-Up-7" target="QwL18J_q-RxOLkEPr-Up-21" edge="1">
          <mxGeometry relative="1" as="geometry" />
        </mxCell>
        <mxCell id="QwL18J_q-RxOLkEPr-Up-23" value="Home Page" style="whiteSpace=wrap;html=1;rounded=1;labelBackgroundColor=none;fillColor=#182E3E;strokeColor=#ACB1D6;fontColor=#FFFFFF;" parent="cGtCeVhmhqgJOxPGAnX_-8" vertex="1">
          <mxGeometry x="35" y="560" width="120" height="60" as="geometry" />
        </mxCell>
        <mxCell id="QwL18J_q-RxOLkEPr-Up-24" value="" style="edgeStyle=orthogonalEdgeStyle;rounded=0;orthogonalLoop=1;jettySize=auto;html=1;labelBackgroundColor=none;fontColor=default;strokeColor=#23445D;" parent="cGtCeVhmhqgJOxPGAnX_-8" source="QwL18J_q-RxOLkEPr-Up-21" target="QwL18J_q-RxOLkEPr-Up-23" edge="1">
          <mxGeometry relative="1" as="geometry" />
        </mxCell>
        <mxCell id="cGtCeVhmhqgJOxPGAnX_-4" value="&lt;font color=&quot;#000000&quot;&gt;Yes&lt;/font&gt;" style="edgeLabel;html=1;align=center;verticalAlign=middle;resizable=0;points=[];labelBackgroundColor=none;fontColor=#FFFFFF;" parent="QwL18J_q-RxOLkEPr-Up-24" vertex="1" connectable="0">
          <mxGeometry x="0.0476" relative="1" as="geometry">
            <mxPoint x="12" as="offset" />
          </mxGeometry>
        </mxCell>
        <mxCell id="cGtCeVhmhqgJOxPGAnX_-10" value="&lt;h1&gt;&lt;font color=&quot;#000000&quot;&gt;Sign In &amp;amp; Sign Up&lt;/font&gt;&lt;/h1&gt;" style="text;strokeColor=none;align=center;fillColor=none;html=1;verticalAlign=middle;whiteSpace=wrap;rounded=0;labelBackgroundColor=none;fontColor=#FFFFFF;" parent="1" vertex="1">
          <mxGeometry x="430" y="40" width="240" height="30" as="geometry" />
        </mxCell>
      </root>
    </mxGraphModel>
  </diagram>
  <diagram name="Post a tweet" id="jlUnjO_T4NuEfTbZQD-7">
    <mxGraphModel dx="1590" dy="975" grid="0" gridSize="10" guides="1" tooltips="1" connect="1" arrows="1" fold="1" page="1" pageScale="1" pageWidth="1100" pageHeight="850" background="#8294C4" math="0" shadow="0">
      <root>
        <mxCell id="AGUlumMlVgv7x5j8KWEL-0" />
        <mxCell id="AGUlumMlVgv7x5j8KWEL-1" parent="AGUlumMlVgv7x5j8KWEL-0" />
        <mxCell id="AGUlumMlVgv7x5j8KWEL-2" value="&lt;h2&gt;&lt;b&gt;Features Requirements&lt;/b&gt;&lt;/h2&gt;&lt;ol style=&quot;line-height: 150%;&quot;&gt;&lt;li&gt;User can sign in&lt;/li&gt;&lt;li&gt;User can sign up&lt;/li&gt;&lt;li&gt;User can post a tweet&lt;/li&gt;&lt;li&gt;User can upload a picture&lt;/li&gt;&lt;li&gt;User can like tweet from other users&lt;/li&gt;&lt;li&gt;User can see active users list (optional)&lt;/li&gt;&lt;li&gt;Pagination&lt;/li&gt;&lt;li&gt;Menu to redirect to Admin panel&lt;/li&gt;&lt;/ol&gt;" style="text;align=left;html=1;verticalAlign=top;whiteSpace=wrap;rounded=0;labelBackgroundColor=none;spacingTop=0;spacing=2;spacingBottom=0;fillStyle=auto;glass=0;shadow=0;labelBorderColor=none;spacingLeft=8;spacingRight=8;movable=1;resizable=1;rotatable=1;deletable=1;editable=1;locked=0;connectable=1;fillColor=#ACB1D6;strokeColor=none;fontColor=#000000;" vertex="1" parent="AGUlumMlVgv7x5j8KWEL-1">
          <mxGeometry x="40" y="40" width="280" height="220" as="geometry" />
        </mxCell>
        <mxCell id="AGUlumMlVgv7x5j8KWEL-26" value="&lt;h1&gt;&lt;font color=&quot;#000000&quot;&gt;Post a tweet&lt;/font&gt;&lt;/h1&gt;" style="text;strokeColor=none;align=center;fillColor=none;html=1;verticalAlign=middle;whiteSpace=wrap;rounded=0;labelBackgroundColor=none;fontColor=#FFFFFF;" vertex="1" parent="AGUlumMlVgv7x5j8KWEL-1">
          <mxGeometry x="430" y="40" width="240" height="30" as="geometry" />
        </mxCell>
        <mxCell id="NeYAM6edFE6V8D2ma4Jr-0" value="" style="group;labelBackgroundColor=none;fontColor=#FFFFFF;" vertex="1" connectable="0" parent="AGUlumMlVgv7x5j8KWEL-1">
          <mxGeometry x="445" y="120" width="210" height="490" as="geometry" />
        </mxCell>
        <mxCell id="NeYAM6edFE6V8D2ma4Jr-1" value="Home Page" style="rounded=1;whiteSpace=wrap;html=1;labelBackgroundColor=none;fillColor=#182E3E;strokeColor=#FFFFFF;fontColor=#FFFFFF;" vertex="1" parent="NeYAM6edFE6V8D2ma4Jr-0">
          <mxGeometry x="50" width="120" height="60" as="geometry" />
        </mxCell>
        <mxCell id="NeYAM6edFE6V8D2ma4Jr-2" style="edgeStyle=orthogonalEdgeStyle;rounded=0;orthogonalLoop=1;jettySize=auto;html=1;entryX=1;entryY=0.5;entryDx=0;entryDy=0;exitX=1;exitY=0.5;exitDx=0;exitDy=0;labelBackgroundColor=none;strokeColor=#23445D;fontColor=default;" edge="1" parent="NeYAM6edFE6V8D2ma4Jr-0" source="NeYAM6edFE6V8D2ma4Jr-4" target="NeYAM6edFE6V8D2ma4Jr-1">
          <mxGeometry relative="1" as="geometry">
            <Array as="points">
              <mxPoint x="210" y="170" />
              <mxPoint x="210" y="30" />
            </Array>
          </mxGeometry>
        </mxCell>
        <mxCell id="NeYAM6edFE6V8D2ma4Jr-3" value="No" style="edgeLabel;html=1;align=center;verticalAlign=middle;resizable=0;points=[];labelBackgroundColor=none;fontColor=#000000;" vertex="1" connectable="0" parent="NeYAM6edFE6V8D2ma4Jr-2">
          <mxGeometry x="-0.1111" y="-1" relative="1" as="geometry">
            <mxPoint x="-22" y="65" as="offset" />
          </mxGeometry>
        </mxCell>
        <mxCell id="NeYAM6edFE6V8D2ma4Jr-4" value="Want to post&lt;br&gt;a tweet?" style="rhombus;whiteSpace=wrap;html=1;rounded=1;labelBackgroundColor=none;fillColor=#182E3E;strokeColor=#FFFFFF;fontColor=#FFFFFF;" vertex="1" parent="NeYAM6edFE6V8D2ma4Jr-0">
          <mxGeometry x="50" y="130" width="120" height="80" as="geometry" />
        </mxCell>
        <mxCell id="NeYAM6edFE6V8D2ma4Jr-5" value="" style="edgeStyle=orthogonalEdgeStyle;rounded=0;orthogonalLoop=1;jettySize=auto;html=1;labelBackgroundColor=none;strokeColor=#23445D;fontColor=default;" edge="1" parent="NeYAM6edFE6V8D2ma4Jr-0" source="NeYAM6edFE6V8D2ma4Jr-1" target="NeYAM6edFE6V8D2ma4Jr-4">
          <mxGeometry relative="1" as="geometry" />
        </mxCell>
        <mxCell id="NeYAM6edFE6V8D2ma4Jr-6" value="Post a tweet" style="whiteSpace=wrap;html=1;rounded=1;labelBackgroundColor=none;fillColor=#182E3E;strokeColor=#FFFFFF;fontColor=#FFFFFF;" vertex="1" parent="NeYAM6edFE6V8D2ma4Jr-0">
          <mxGeometry x="50" y="280" width="120" height="60" as="geometry" />
        </mxCell>
        <mxCell id="NeYAM6edFE6V8D2ma4Jr-7" value="" style="edgeStyle=orthogonalEdgeStyle;rounded=0;orthogonalLoop=1;jettySize=auto;html=1;labelBackgroundColor=none;strokeColor=#23445D;fontColor=default;" edge="1" parent="NeYAM6edFE6V8D2ma4Jr-0" source="NeYAM6edFE6V8D2ma4Jr-4" target="NeYAM6edFE6V8D2ma4Jr-6">
          <mxGeometry relative="1" as="geometry" />
        </mxCell>
        <mxCell id="NeYAM6edFE6V8D2ma4Jr-8" value="Yes" style="edgeLabel;html=1;align=center;verticalAlign=middle;resizable=0;points=[];labelBackgroundColor=none;fontColor=#000000;" vertex="1" connectable="0" parent="NeYAM6edFE6V8D2ma4Jr-7">
          <mxGeometry x="-0.0857" relative="1" as="geometry">
            <mxPoint x="10" as="offset" />
          </mxGeometry>
        </mxCell>
        <mxCell id="NeYAM6edFE6V8D2ma4Jr-9" style="edgeStyle=orthogonalEdgeStyle;rounded=0;orthogonalLoop=1;jettySize=auto;html=1;entryX=0;entryY=0.5;entryDx=0;entryDy=0;exitX=0;exitY=0.5;exitDx=0;exitDy=0;labelBackgroundColor=none;strokeColor=#23445D;fontColor=default;" edge="1" parent="NeYAM6edFE6V8D2ma4Jr-0" source="NeYAM6edFE6V8D2ma4Jr-13" target="NeYAM6edFE6V8D2ma4Jr-1">
          <mxGeometry relative="1" as="geometry">
            <Array as="points">
              <mxPoint y="450" />
              <mxPoint y="30" />
            </Array>
          </mxGeometry>
        </mxCell>
        <mxCell id="NeYAM6edFE6V8D2ma4Jr-10" value="Yes" style="edgeLabel;html=1;align=center;verticalAlign=middle;resizable=0;points=[];labelBackgroundColor=none;fontColor=#000000;" vertex="1" connectable="0" parent="NeYAM6edFE6V8D2ma4Jr-9">
          <mxGeometry x="-0.9219" relative="1" as="geometry">
            <mxPoint x="-5" y="8" as="offset" />
          </mxGeometry>
        </mxCell>
        <mxCell id="NeYAM6edFE6V8D2ma4Jr-11" style="edgeStyle=orthogonalEdgeStyle;rounded=0;orthogonalLoop=1;jettySize=auto;html=1;entryX=1;entryY=0.5;entryDx=0;entryDy=0;exitX=1;exitY=0.5;exitDx=0;exitDy=0;labelBackgroundColor=none;strokeColor=#23445D;fontColor=default;" edge="1" parent="NeYAM6edFE6V8D2ma4Jr-0" source="NeYAM6edFE6V8D2ma4Jr-13" target="NeYAM6edFE6V8D2ma4Jr-6">
          <mxGeometry relative="1" as="geometry">
            <Array as="points">
              <mxPoint x="210" y="450" />
              <mxPoint x="210" y="310" />
            </Array>
          </mxGeometry>
        </mxCell>
        <mxCell id="NeYAM6edFE6V8D2ma4Jr-12" value="No" style="edgeLabel;html=1;align=center;verticalAlign=middle;resizable=0;points=[];labelBackgroundColor=none;fontColor=#000000;" vertex="1" connectable="0" parent="NeYAM6edFE6V8D2ma4Jr-11">
          <mxGeometry x="-0.8221" y="-1" relative="1" as="geometry">
            <mxPoint y="7" as="offset" />
          </mxGeometry>
        </mxCell>
        <mxCell id="NeYAM6edFE6V8D2ma4Jr-13" value="Post success?" style="rhombus;whiteSpace=wrap;html=1;rounded=1;labelBackgroundColor=none;fillColor=#182E3E;strokeColor=#FFFFFF;fontColor=#FFFFFF;" vertex="1" parent="NeYAM6edFE6V8D2ma4Jr-0">
          <mxGeometry x="50" y="410" width="120" height="80" as="geometry" />
        </mxCell>
        <mxCell id="NeYAM6edFE6V8D2ma4Jr-14" value="" style="edgeStyle=orthogonalEdgeStyle;rounded=0;orthogonalLoop=1;jettySize=auto;html=1;labelBackgroundColor=none;strokeColor=#23445D;fontColor=default;" edge="1" parent="NeYAM6edFE6V8D2ma4Jr-0" source="NeYAM6edFE6V8D2ma4Jr-6" target="NeYAM6edFE6V8D2ma4Jr-13">
          <mxGeometry relative="1" as="geometry" />
        </mxCell>
      </root>
    </mxGraphModel>
  </diagram>
  <diagram id="E_fAsIOlzMjQi6JlMtmh" name="Page-2">
    <mxGraphModel dx="263" dy="836" grid="1" gridSize="10" guides="1" tooltips="1" connect="1" arrows="1" fold="1" page="1" pageScale="1" pageWidth="1100" pageHeight="850" math="0" shadow="0">
      <root>
        <mxCell id="0" />
        <mxCell id="1" parent="0" />
        <mxCell id="UZXCuOwnJwMjy4uVcCzj-1" value="" style="group" parent="1" vertex="1" connectable="0">
          <mxGeometry x="1400" y="40" width="220" height="490" as="geometry" />
        </mxCell>
        <mxCell id="UZXCuOwnJwMjy4uVcCzj-2" value="Home Page" style="rounded=1;whiteSpace=wrap;html=1;" parent="UZXCuOwnJwMjy4uVcCzj-1" vertex="1">
          <mxGeometry x="50" width="120" height="60" as="geometry" />
        </mxCell>
        <mxCell id="UZXCuOwnJwMjy4uVcCzj-3" style="edgeStyle=orthogonalEdgeStyle;rounded=0;orthogonalLoop=1;jettySize=auto;html=1;entryX=1;entryY=0.5;entryDx=0;entryDy=0;exitX=1;exitY=0.5;exitDx=0;exitDy=0;" parent="UZXCuOwnJwMjy4uVcCzj-1" source="UZXCuOwnJwMjy4uVcCzj-5" target="UZXCuOwnJwMjy4uVcCzj-2" edge="1">
          <mxGeometry relative="1" as="geometry">
            <Array as="points">
              <mxPoint x="220" y="170" />
              <mxPoint x="220" y="30" />
            </Array>
          </mxGeometry>
        </mxCell>
        <mxCell id="UZXCuOwnJwMjy4uVcCzj-4" value="No" style="edgeLabel;html=1;align=center;verticalAlign=middle;resizable=0;points=[];" parent="UZXCuOwnJwMjy4uVcCzj-3" vertex="1" connectable="0">
          <mxGeometry x="-0.854" y="-1" relative="1" as="geometry">
            <mxPoint as="offset" />
          </mxGeometry>
        </mxCell>
        <mxCell id="UZXCuOwnJwMjy4uVcCzj-5" value="Want to post a&lt;br&gt;tweet with picture?" style="rhombus;whiteSpace=wrap;html=1;rounded=1;" parent="UZXCuOwnJwMjy4uVcCzj-1" vertex="1">
          <mxGeometry x="40" y="130" width="140" height="80" as="geometry" />
        </mxCell>
        <mxCell id="UZXCuOwnJwMjy4uVcCzj-6" value="" style="edgeStyle=orthogonalEdgeStyle;rounded=0;orthogonalLoop=1;jettySize=auto;html=1;" parent="UZXCuOwnJwMjy4uVcCzj-1" source="UZXCuOwnJwMjy4uVcCzj-2" target="UZXCuOwnJwMjy4uVcCzj-5" edge="1">
          <mxGeometry relative="1" as="geometry" />
        </mxCell>
        <mxCell id="UZXCuOwnJwMjy4uVcCzj-7" value="Post a tweet with picture" style="whiteSpace=wrap;html=1;rounded=1;" parent="UZXCuOwnJwMjy4uVcCzj-1" vertex="1">
          <mxGeometry x="50" y="280" width="120" height="60" as="geometry" />
        </mxCell>
        <mxCell id="UZXCuOwnJwMjy4uVcCzj-8" value="" style="edgeStyle=orthogonalEdgeStyle;rounded=0;orthogonalLoop=1;jettySize=auto;html=1;" parent="UZXCuOwnJwMjy4uVcCzj-1" source="UZXCuOwnJwMjy4uVcCzj-5" target="UZXCuOwnJwMjy4uVcCzj-7" edge="1">
          <mxGeometry relative="1" as="geometry" />
        </mxCell>
        <mxCell id="UZXCuOwnJwMjy4uVcCzj-9" value="Yes" style="edgeLabel;html=1;align=center;verticalAlign=middle;resizable=0;points=[];" parent="UZXCuOwnJwMjy4uVcCzj-8" vertex="1" connectable="0">
          <mxGeometry x="-0.0857" relative="1" as="geometry">
            <mxPoint as="offset" />
          </mxGeometry>
        </mxCell>
        <mxCell id="UZXCuOwnJwMjy4uVcCzj-10" style="edgeStyle=orthogonalEdgeStyle;rounded=0;orthogonalLoop=1;jettySize=auto;html=1;entryX=0;entryY=0.5;entryDx=0;entryDy=0;exitX=0;exitY=0.5;exitDx=0;exitDy=0;" parent="UZXCuOwnJwMjy4uVcCzj-1" source="UZXCuOwnJwMjy4uVcCzj-14" target="UZXCuOwnJwMjy4uVcCzj-2" edge="1">
          <mxGeometry relative="1" as="geometry">
            <Array as="points">
              <mxPoint y="450" />
              <mxPoint y="30" />
            </Array>
          </mxGeometry>
        </mxCell>
        <mxCell id="UZXCuOwnJwMjy4uVcCzj-11" value="Yes" style="edgeLabel;html=1;align=center;verticalAlign=middle;resizable=0;points=[];" parent="UZXCuOwnJwMjy4uVcCzj-10" vertex="1" connectable="0">
          <mxGeometry x="-0.8995" y="-2" relative="1" as="geometry">
            <mxPoint as="offset" />
          </mxGeometry>
        </mxCell>
        <mxCell id="UZXCuOwnJwMjy4uVcCzj-12" style="edgeStyle=orthogonalEdgeStyle;rounded=0;orthogonalLoop=1;jettySize=auto;html=1;entryX=1;entryY=0.5;entryDx=0;entryDy=0;exitX=1;exitY=0.5;exitDx=0;exitDy=0;" parent="UZXCuOwnJwMjy4uVcCzj-1" source="UZXCuOwnJwMjy4uVcCzj-14" target="UZXCuOwnJwMjy4uVcCzj-7" edge="1">
          <mxGeometry relative="1" as="geometry">
            <Array as="points">
              <mxPoint x="210" y="450" />
              <mxPoint x="210" y="310" />
            </Array>
          </mxGeometry>
        </mxCell>
        <mxCell id="UZXCuOwnJwMjy4uVcCzj-13" value="No" style="edgeLabel;html=1;align=center;verticalAlign=middle;resizable=0;points=[];" parent="UZXCuOwnJwMjy4uVcCzj-12" vertex="1" connectable="0">
          <mxGeometry x="-0.8223" relative="1" as="geometry">
            <mxPoint as="offset" />
          </mxGeometry>
        </mxCell>
        <mxCell id="UZXCuOwnJwMjy4uVcCzj-14" value="Post success?" style="rhombus;whiteSpace=wrap;html=1;rounded=1;" parent="UZXCuOwnJwMjy4uVcCzj-1" vertex="1">
          <mxGeometry x="50" y="410" width="120" height="80" as="geometry" />
        </mxCell>
        <mxCell id="UZXCuOwnJwMjy4uVcCzj-15" value="" style="edgeStyle=orthogonalEdgeStyle;rounded=0;orthogonalLoop=1;jettySize=auto;html=1;" parent="UZXCuOwnJwMjy4uVcCzj-1" source="UZXCuOwnJwMjy4uVcCzj-7" target="UZXCuOwnJwMjy4uVcCzj-14" edge="1">
          <mxGeometry relative="1" as="geometry" />
        </mxCell>
        <mxCell id="UZXCuOwnJwMjy4uVcCzj-31" value="" style="group" parent="1" vertex="1" connectable="0">
          <mxGeometry x="1830" y="40" width="220" height="490" as="geometry" />
        </mxCell>
        <mxCell id="UZXCuOwnJwMjy4uVcCzj-32" value="Home Page" style="rounded=1;whiteSpace=wrap;html=1;" parent="UZXCuOwnJwMjy4uVcCzj-31" vertex="1">
          <mxGeometry x="50" width="120" height="60" as="geometry" />
        </mxCell>
        <mxCell id="UZXCuOwnJwMjy4uVcCzj-33" style="edgeStyle=orthogonalEdgeStyle;rounded=0;orthogonalLoop=1;jettySize=auto;html=1;entryX=1;entryY=0.5;entryDx=0;entryDy=0;exitX=1;exitY=0.5;exitDx=0;exitDy=0;" parent="UZXCuOwnJwMjy4uVcCzj-31" source="UZXCuOwnJwMjy4uVcCzj-35" target="UZXCuOwnJwMjy4uVcCzj-32" edge="1">
          <mxGeometry relative="1" as="geometry">
            <Array as="points">
              <mxPoint x="220" y="170" />
              <mxPoint x="220" y="30" />
            </Array>
          </mxGeometry>
        </mxCell>
        <mxCell id="UZXCuOwnJwMjy4uVcCzj-34" value="No" style="edgeLabel;html=1;align=center;verticalAlign=middle;resizable=0;points=[];" parent="UZXCuOwnJwMjy4uVcCzj-33" vertex="1" connectable="0">
          <mxGeometry x="-0.854" y="-1" relative="1" as="geometry">
            <mxPoint as="offset" />
          </mxGeometry>
        </mxCell>
        <mxCell id="UZXCuOwnJwMjy4uVcCzj-35" value="Want to interact&lt;br&gt;with other tweet?" style="rhombus;whiteSpace=wrap;html=1;rounded=1;" parent="UZXCuOwnJwMjy4uVcCzj-31" vertex="1">
          <mxGeometry x="40" y="130" width="140" height="80" as="geometry" />
        </mxCell>
        <mxCell id="UZXCuOwnJwMjy4uVcCzj-36" value="" style="edgeStyle=orthogonalEdgeStyle;rounded=0;orthogonalLoop=1;jettySize=auto;html=1;" parent="UZXCuOwnJwMjy4uVcCzj-31" source="UZXCuOwnJwMjy4uVcCzj-32" target="UZXCuOwnJwMjy4uVcCzj-35" edge="1">
          <mxGeometry relative="1" as="geometry" />
        </mxCell>
        <mxCell id="UZXCuOwnJwMjy4uVcCzj-37" value="Like a tweet" style="whiteSpace=wrap;html=1;rounded=1;" parent="UZXCuOwnJwMjy4uVcCzj-31" vertex="1">
          <mxGeometry x="50" y="280" width="120" height="60" as="geometry" />
        </mxCell>
        <mxCell id="UZXCuOwnJwMjy4uVcCzj-38" value="" style="edgeStyle=orthogonalEdgeStyle;rounded=0;orthogonalLoop=1;jettySize=auto;html=1;" parent="UZXCuOwnJwMjy4uVcCzj-31" source="UZXCuOwnJwMjy4uVcCzj-35" target="UZXCuOwnJwMjy4uVcCzj-37" edge="1">
          <mxGeometry relative="1" as="geometry" />
        </mxCell>
        <mxCell id="UZXCuOwnJwMjy4uVcCzj-39" value="Yes" style="edgeLabel;html=1;align=center;verticalAlign=middle;resizable=0;points=[];" parent="UZXCuOwnJwMjy4uVcCzj-38" vertex="1" connectable="0">
          <mxGeometry x="-0.0857" relative="1" as="geometry">
            <mxPoint as="offset" />
          </mxGeometry>
        </mxCell>
        <mxCell id="UZXCuOwnJwMjy4uVcCzj-40" style="edgeStyle=orthogonalEdgeStyle;rounded=0;orthogonalLoop=1;jettySize=auto;html=1;entryX=0;entryY=0.5;entryDx=0;entryDy=0;exitX=0;exitY=0.5;exitDx=0;exitDy=0;" parent="UZXCuOwnJwMjy4uVcCzj-31" source="UZXCuOwnJwMjy4uVcCzj-44" target="UZXCuOwnJwMjy4uVcCzj-32" edge="1">
          <mxGeometry relative="1" as="geometry">
            <Array as="points">
              <mxPoint y="450" />
              <mxPoint y="30" />
            </Array>
          </mxGeometry>
        </mxCell>
        <mxCell id="UZXCuOwnJwMjy4uVcCzj-41" value="Yes" style="edgeLabel;html=1;align=center;verticalAlign=middle;resizable=0;points=[];" parent="UZXCuOwnJwMjy4uVcCzj-40" vertex="1" connectable="0">
          <mxGeometry x="-0.8995" y="-2" relative="1" as="geometry">
            <mxPoint as="offset" />
          </mxGeometry>
        </mxCell>
        <mxCell id="UZXCuOwnJwMjy4uVcCzj-42" style="edgeStyle=orthogonalEdgeStyle;rounded=0;orthogonalLoop=1;jettySize=auto;html=1;entryX=1;entryY=0.5;entryDx=0;entryDy=0;exitX=1;exitY=0.5;exitDx=0;exitDy=0;" parent="UZXCuOwnJwMjy4uVcCzj-31" source="UZXCuOwnJwMjy4uVcCzj-44" target="UZXCuOwnJwMjy4uVcCzj-37" edge="1">
          <mxGeometry relative="1" as="geometry">
            <Array as="points">
              <mxPoint x="210" y="450" />
              <mxPoint x="210" y="310" />
            </Array>
          </mxGeometry>
        </mxCell>
        <mxCell id="UZXCuOwnJwMjy4uVcCzj-43" value="No" style="edgeLabel;html=1;align=center;verticalAlign=middle;resizable=0;points=[];" parent="UZXCuOwnJwMjy4uVcCzj-42" vertex="1" connectable="0">
          <mxGeometry x="-0.8223" relative="1" as="geometry">
            <mxPoint as="offset" />
          </mxGeometry>
        </mxCell>
        <mxCell id="UZXCuOwnJwMjy4uVcCzj-44" value="Like a tweet &lt;br&gt;success?" style="rhombus;whiteSpace=wrap;html=1;rounded=1;" parent="UZXCuOwnJwMjy4uVcCzj-31" vertex="1">
          <mxGeometry x="50" y="410" width="120" height="80" as="geometry" />
        </mxCell>
        <mxCell id="UZXCuOwnJwMjy4uVcCzj-45" value="" style="edgeStyle=orthogonalEdgeStyle;rounded=0;orthogonalLoop=1;jettySize=auto;html=1;" parent="UZXCuOwnJwMjy4uVcCzj-31" source="UZXCuOwnJwMjy4uVcCzj-37" target="UZXCuOwnJwMjy4uVcCzj-44" edge="1">
          <mxGeometry relative="1" as="geometry" />
        </mxCell>
        <mxCell id="UZXCuOwnJwMjy4uVcCzj-46" value="" style="group" parent="1" vertex="1" connectable="0">
          <mxGeometry x="2250" y="40" width="220" height="490" as="geometry" />
        </mxCell>
        <mxCell id="UZXCuOwnJwMjy4uVcCzj-47" value="Home Page" style="rounded=1;whiteSpace=wrap;html=1;" parent="UZXCuOwnJwMjy4uVcCzj-46" vertex="1">
          <mxGeometry x="50" width="120" height="60" as="geometry" />
        </mxCell>
        <mxCell id="UZXCuOwnJwMjy4uVcCzj-48" style="edgeStyle=orthogonalEdgeStyle;rounded=0;orthogonalLoop=1;jettySize=auto;html=1;entryX=1;entryY=0.5;entryDx=0;entryDy=0;exitX=1;exitY=0.5;exitDx=0;exitDy=0;" parent="UZXCuOwnJwMjy4uVcCzj-46" source="UZXCuOwnJwMjy4uVcCzj-50" target="UZXCuOwnJwMjy4uVcCzj-47" edge="1">
          <mxGeometry relative="1" as="geometry">
            <Array as="points">
              <mxPoint x="220" y="170" />
              <mxPoint x="220" y="30" />
            </Array>
          </mxGeometry>
        </mxCell>
        <mxCell id="UZXCuOwnJwMjy4uVcCzj-49" value="No" style="edgeLabel;html=1;align=center;verticalAlign=middle;resizable=0;points=[];" parent="UZXCuOwnJwMjy4uVcCzj-48" vertex="1" connectable="0">
          <mxGeometry x="-0.854" y="-1" relative="1" as="geometry">
            <mxPoint as="offset" />
          </mxGeometry>
        </mxCell>
        <mxCell id="UZXCuOwnJwMjy4uVcCzj-50" value="Want to see more&lt;br&gt;tweet?" style="rhombus;whiteSpace=wrap;html=1;rounded=1;" parent="UZXCuOwnJwMjy4uVcCzj-46" vertex="1">
          <mxGeometry x="40" y="130" width="140" height="80" as="geometry" />
        </mxCell>
        <mxCell id="UZXCuOwnJwMjy4uVcCzj-51" value="" style="edgeStyle=orthogonalEdgeStyle;rounded=0;orthogonalLoop=1;jettySize=auto;html=1;" parent="UZXCuOwnJwMjy4uVcCzj-46" source="UZXCuOwnJwMjy4uVcCzj-47" target="UZXCuOwnJwMjy4uVcCzj-50" edge="1">
          <mxGeometry relative="1" as="geometry" />
        </mxCell>
        <mxCell id="UZXCuOwnJwMjy4uVcCzj-52" value="More tweet" style="whiteSpace=wrap;html=1;rounded=1;" parent="UZXCuOwnJwMjy4uVcCzj-46" vertex="1">
          <mxGeometry x="50" y="280" width="120" height="60" as="geometry" />
        </mxCell>
        <mxCell id="UZXCuOwnJwMjy4uVcCzj-53" value="" style="edgeStyle=orthogonalEdgeStyle;rounded=0;orthogonalLoop=1;jettySize=auto;html=1;" parent="UZXCuOwnJwMjy4uVcCzj-46" source="UZXCuOwnJwMjy4uVcCzj-50" target="UZXCuOwnJwMjy4uVcCzj-52" edge="1">
          <mxGeometry relative="1" as="geometry" />
        </mxCell>
        <mxCell id="UZXCuOwnJwMjy4uVcCzj-54" value="Yes" style="edgeLabel;html=1;align=center;verticalAlign=middle;resizable=0;points=[];" parent="UZXCuOwnJwMjy4uVcCzj-53" vertex="1" connectable="0">
          <mxGeometry x="-0.0857" relative="1" as="geometry">
            <mxPoint as="offset" />
          </mxGeometry>
        </mxCell>
        <mxCell id="UZXCuOwnJwMjy4uVcCzj-55" style="edgeStyle=orthogonalEdgeStyle;rounded=0;orthogonalLoop=1;jettySize=auto;html=1;entryX=0;entryY=0.5;entryDx=0;entryDy=0;exitX=0;exitY=0.5;exitDx=0;exitDy=0;" parent="UZXCuOwnJwMjy4uVcCzj-46" source="UZXCuOwnJwMjy4uVcCzj-59" target="UZXCuOwnJwMjy4uVcCzj-47" edge="1">
          <mxGeometry relative="1" as="geometry">
            <Array as="points">
              <mxPoint y="450" />
              <mxPoint y="30" />
            </Array>
          </mxGeometry>
        </mxCell>
        <mxCell id="UZXCuOwnJwMjy4uVcCzj-56" value="Yes" style="edgeLabel;html=1;align=center;verticalAlign=middle;resizable=0;points=[];" parent="UZXCuOwnJwMjy4uVcCzj-55" vertex="1" connectable="0">
          <mxGeometry x="-0.8995" y="-2" relative="1" as="geometry">
            <mxPoint as="offset" />
          </mxGeometry>
        </mxCell>
        <mxCell id="UZXCuOwnJwMjy4uVcCzj-57" style="edgeStyle=orthogonalEdgeStyle;rounded=0;orthogonalLoop=1;jettySize=auto;html=1;entryX=1;entryY=0.5;entryDx=0;entryDy=0;exitX=1;exitY=0.5;exitDx=0;exitDy=0;" parent="UZXCuOwnJwMjy4uVcCzj-46" source="UZXCuOwnJwMjy4uVcCzj-59" target="UZXCuOwnJwMjy4uVcCzj-52" edge="1">
          <mxGeometry relative="1" as="geometry">
            <Array as="points">
              <mxPoint x="210" y="450" />
              <mxPoint x="210" y="310" />
            </Array>
          </mxGeometry>
        </mxCell>
        <mxCell id="UZXCuOwnJwMjy4uVcCzj-58" value="No" style="edgeLabel;html=1;align=center;verticalAlign=middle;resizable=0;points=[];" parent="UZXCuOwnJwMjy4uVcCzj-57" vertex="1" connectable="0">
          <mxGeometry x="-0.8223" relative="1" as="geometry">
            <mxPoint as="offset" />
          </mxGeometry>
        </mxCell>
        <mxCell id="UZXCuOwnJwMjy4uVcCzj-59" value="Get more tweet success?" style="rhombus;whiteSpace=wrap;html=1;rounded=1;" parent="UZXCuOwnJwMjy4uVcCzj-46" vertex="1">
          <mxGeometry x="50" y="410" width="120" height="80" as="geometry" />
        </mxCell>
        <mxCell id="UZXCuOwnJwMjy4uVcCzj-60" value="" style="edgeStyle=orthogonalEdgeStyle;rounded=0;orthogonalLoop=1;jettySize=auto;html=1;" parent="UZXCuOwnJwMjy4uVcCzj-46" source="UZXCuOwnJwMjy4uVcCzj-52" target="UZXCuOwnJwMjy4uVcCzj-59" edge="1">
          <mxGeometry relative="1" as="geometry" />
        </mxCell>
        <mxCell id="UZXCuOwnJwMjy4uVcCzj-61" value="Home Page" style="rounded=1;whiteSpace=wrap;html=1;" parent="1" vertex="1">
          <mxGeometry x="3140" y="40" width="120" height="60" as="geometry" />
        </mxCell>
        <mxCell id="UZXCuOwnJwMjy4uVcCzj-62" style="edgeStyle=orthogonalEdgeStyle;rounded=0;orthogonalLoop=1;jettySize=auto;html=1;entryX=1;entryY=0.5;entryDx=0;entryDy=0;exitX=1;exitY=0.5;exitDx=0;exitDy=0;" parent="1" source="UZXCuOwnJwMjy4uVcCzj-64" target="UZXCuOwnJwMjy4uVcCzj-61" edge="1">
          <mxGeometry relative="1" as="geometry">
            <Array as="points">
              <mxPoint x="3310" y="210" />
              <mxPoint x="3310" y="70" />
            </Array>
          </mxGeometry>
        </mxCell>
        <mxCell id="UZXCuOwnJwMjy4uVcCzj-63" value="No" style="edgeLabel;html=1;align=center;verticalAlign=middle;resizable=0;points=[];" parent="UZXCuOwnJwMjy4uVcCzj-62" vertex="1" connectable="0">
          <mxGeometry x="-0.854" y="-1" relative="1" as="geometry">
            <mxPoint as="offset" />
          </mxGeometry>
        </mxCell>
        <mxCell id="UZXCuOwnJwMjy4uVcCzj-64" value="Want to go to&lt;br&gt;Admin Panel?" style="rhombus;whiteSpace=wrap;html=1;rounded=1;" parent="1" vertex="1">
          <mxGeometry x="3130" y="170" width="140" height="80" as="geometry" />
        </mxCell>
        <mxCell id="UZXCuOwnJwMjy4uVcCzj-65" value="" style="edgeStyle=orthogonalEdgeStyle;rounded=0;orthogonalLoop=1;jettySize=auto;html=1;" parent="1" source="UZXCuOwnJwMjy4uVcCzj-61" target="UZXCuOwnJwMjy4uVcCzj-64" edge="1">
          <mxGeometry relative="1" as="geometry" />
        </mxCell>
        <mxCell id="UZXCuOwnJwMjy4uVcCzj-66" value="Admin Panel" style="whiteSpace=wrap;html=1;rounded=1;" parent="1" vertex="1">
          <mxGeometry x="3140" y="320" width="120" height="60" as="geometry" />
        </mxCell>
        <mxCell id="UZXCuOwnJwMjy4uVcCzj-67" value="" style="edgeStyle=orthogonalEdgeStyle;rounded=0;orthogonalLoop=1;jettySize=auto;html=1;" parent="1" source="UZXCuOwnJwMjy4uVcCzj-64" target="UZXCuOwnJwMjy4uVcCzj-66" edge="1">
          <mxGeometry relative="1" as="geometry" />
        </mxCell>
        <mxCell id="UZXCuOwnJwMjy4uVcCzj-68" value="Yes" style="edgeLabel;html=1;align=center;verticalAlign=middle;resizable=0;points=[];" parent="UZXCuOwnJwMjy4uVcCzj-67" vertex="1" connectable="0">
          <mxGeometry x="-0.0857" relative="1" as="geometry">
            <mxPoint as="offset" />
          </mxGeometry>
        </mxCell>
        <mxCell id="UZXCuOwnJwMjy4uVcCzj-69" style="edgeStyle=orthogonalEdgeStyle;rounded=0;orthogonalLoop=1;jettySize=auto;html=1;entryX=0;entryY=0.5;entryDx=0;entryDy=0;exitX=0;exitY=0.5;exitDx=0;exitDy=0;" parent="1" source="UZXCuOwnJwMjy4uVcCzj-73" target="UZXCuOwnJwMjy4uVcCzj-61" edge="1">
          <mxGeometry relative="1" as="geometry">
            <mxPoint x="3180" y="540" as="sourcePoint" />
            <Array as="points">
              <mxPoint x="3100" y="490" />
              <mxPoint x="3100" y="70" />
            </Array>
          </mxGeometry>
        </mxCell>
        <mxCell id="UZXCuOwnJwMjy4uVcCzj-70" value="No" style="edgeLabel;html=1;align=center;verticalAlign=middle;resizable=0;points=[];" parent="UZXCuOwnJwMjy4uVcCzj-69" vertex="1" connectable="0">
          <mxGeometry x="-0.9579" y="-1" relative="1" as="geometry">
            <mxPoint x="-10" y="1" as="offset" />
          </mxGeometry>
        </mxCell>
        <mxCell id="UZXCuOwnJwMjy4uVcCzj-71" style="edgeStyle=orthogonalEdgeStyle;rounded=0;orthogonalLoop=1;jettySize=auto;html=1;entryX=1;entryY=0.5;entryDx=0;entryDy=0;exitX=1;exitY=0.5;exitDx=0;exitDy=0;" parent="1" source="UZXCuOwnJwMjy4uVcCzj-73" target="UZXCuOwnJwMjy4uVcCzj-66" edge="1">
          <mxGeometry relative="1" as="geometry">
            <Array as="points">
              <mxPoint x="3300" y="490" />
              <mxPoint x="3300" y="350" />
            </Array>
          </mxGeometry>
        </mxCell>
        <mxCell id="UZXCuOwnJwMjy4uVcCzj-72" value="Yes" style="edgeLabel;html=1;align=center;verticalAlign=middle;resizable=0;points=[];" parent="UZXCuOwnJwMjy4uVcCzj-71" vertex="1" connectable="0">
          <mxGeometry x="-0.8519" y="-2" relative="1" as="geometry">
            <mxPoint x="4" as="offset" />
          </mxGeometry>
        </mxCell>
        <mxCell id="UZXCuOwnJwMjy4uVcCzj-73" value="Go to Admin&lt;br&gt;Panel success?" style="rhombus;whiteSpace=wrap;html=1;rounded=1;" parent="1" vertex="1">
          <mxGeometry x="3140" y="450" width="120" height="80" as="geometry" />
        </mxCell>
        <mxCell id="UZXCuOwnJwMjy4uVcCzj-74" value="" style="edgeStyle=orthogonalEdgeStyle;rounded=0;orthogonalLoop=1;jettySize=auto;html=1;" parent="1" source="UZXCuOwnJwMjy4uVcCzj-66" target="UZXCuOwnJwMjy4uVcCzj-73" edge="1">
          <mxGeometry relative="1" as="geometry" />
        </mxCell>
        <mxCell id="UZXCuOwnJwMjy4uVcCzj-75" value="Home Page" style="rounded=1;whiteSpace=wrap;html=1;" parent="1" vertex="1">
          <mxGeometry x="2720" y="40" width="120" height="60" as="geometry" />
        </mxCell>
        <mxCell id="UZXCuOwnJwMjy4uVcCzj-76" style="edgeStyle=orthogonalEdgeStyle;rounded=0;orthogonalLoop=1;jettySize=auto;html=1;entryX=1;entryY=0.5;entryDx=0;entryDy=0;exitX=1;exitY=0.5;exitDx=0;exitDy=0;" parent="1" source="UZXCuOwnJwMjy4uVcCzj-78" target="UZXCuOwnJwMjy4uVcCzj-75" edge="1">
          <mxGeometry relative="1" as="geometry">
            <Array as="points">
              <mxPoint x="2890" y="210" />
              <mxPoint x="2890" y="70" />
            </Array>
          </mxGeometry>
        </mxCell>
        <mxCell id="UZXCuOwnJwMjy4uVcCzj-77" value="No" style="edgeLabel;html=1;align=center;verticalAlign=middle;resizable=0;points=[];" parent="UZXCuOwnJwMjy4uVcCzj-76" vertex="1" connectable="0">
          <mxGeometry x="-0.854" y="-1" relative="1" as="geometry">
            <mxPoint as="offset" />
          </mxGeometry>
        </mxCell>
        <mxCell id="UZXCuOwnJwMjy4uVcCzj-78" value="Want to see active&lt;br&gt;user list?" style="rhombus;whiteSpace=wrap;html=1;rounded=1;" parent="1" vertex="1">
          <mxGeometry x="2710" y="170" width="140" height="80" as="geometry" />
        </mxCell>
        <mxCell id="UZXCuOwnJwMjy4uVcCzj-79" value="" style="edgeStyle=orthogonalEdgeStyle;rounded=0;orthogonalLoop=1;jettySize=auto;html=1;" parent="1" source="UZXCuOwnJwMjy4uVcCzj-75" target="UZXCuOwnJwMjy4uVcCzj-78" edge="1">
          <mxGeometry relative="1" as="geometry" />
        </mxCell>
        <mxCell id="UZXCuOwnJwMjy4uVcCzj-80" value="Leaderboard" style="whiteSpace=wrap;html=1;rounded=1;" parent="1" vertex="1">
          <mxGeometry x="2720" y="320" width="120" height="60" as="geometry" />
        </mxCell>
        <mxCell id="UZXCuOwnJwMjy4uVcCzj-81" value="" style="edgeStyle=orthogonalEdgeStyle;rounded=0;orthogonalLoop=1;jettySize=auto;html=1;" parent="1" source="UZXCuOwnJwMjy4uVcCzj-78" target="UZXCuOwnJwMjy4uVcCzj-80" edge="1">
          <mxGeometry relative="1" as="geometry" />
        </mxCell>
        <mxCell id="UZXCuOwnJwMjy4uVcCzj-82" value="Yes" style="edgeLabel;html=1;align=center;verticalAlign=middle;resizable=0;points=[];" parent="UZXCuOwnJwMjy4uVcCzj-81" vertex="1" connectable="0">
          <mxGeometry x="-0.0857" relative="1" as="geometry">
            <mxPoint as="offset" />
          </mxGeometry>
        </mxCell>
        <mxCell id="UZXCuOwnJwMjy4uVcCzj-83" style="edgeStyle=orthogonalEdgeStyle;rounded=0;orthogonalLoop=1;jettySize=auto;html=1;entryX=1;entryY=0.5;entryDx=0;entryDy=0;exitX=1;exitY=0.5;exitDx=0;exitDy=0;" parent="1" source="UZXCuOwnJwMjy4uVcCzj-87" target="UZXCuOwnJwMjy4uVcCzj-80" edge="1">
          <mxGeometry relative="1" as="geometry">
            <Array as="points">
              <mxPoint x="2870" y="490" />
              <mxPoint x="2870" y="350" />
            </Array>
          </mxGeometry>
        </mxCell>
        <mxCell id="UZXCuOwnJwMjy4uVcCzj-84" value="Yes" style="edgeLabel;html=1;align=center;verticalAlign=middle;resizable=0;points=[];" parent="UZXCuOwnJwMjy4uVcCzj-83" vertex="1" connectable="0">
          <mxGeometry x="-0.8024" y="1" relative="1" as="geometry">
            <mxPoint x="-6" as="offset" />
          </mxGeometry>
        </mxCell>
        <mxCell id="UZXCuOwnJwMjy4uVcCzj-85" style="edgeStyle=orthogonalEdgeStyle;rounded=0;orthogonalLoop=1;jettySize=auto;html=1;entryX=0;entryY=0.5;entryDx=0;entryDy=0;exitX=0;exitY=0.5;exitDx=0;exitDy=0;" parent="1" source="UZXCuOwnJwMjy4uVcCzj-87" target="UZXCuOwnJwMjy4uVcCzj-75" edge="1">
          <mxGeometry relative="1" as="geometry">
            <Array as="points">
              <mxPoint x="2690" y="490" />
              <mxPoint x="2690" y="70" />
            </Array>
          </mxGeometry>
        </mxCell>
        <mxCell id="UZXCuOwnJwMjy4uVcCzj-86" value="No" style="edgeLabel;html=1;align=center;verticalAlign=middle;resizable=0;points=[];" parent="UZXCuOwnJwMjy4uVcCzj-85" vertex="1" connectable="0">
          <mxGeometry x="-0.9579" y="-1" relative="1" as="geometry">
            <mxPoint x="-4" as="offset" />
          </mxGeometry>
        </mxCell>
        <mxCell id="UZXCuOwnJwMjy4uVcCzj-87" value="Get active user&lt;br&gt;list success?" style="rhombus;whiteSpace=wrap;html=1;rounded=1;" parent="1" vertex="1">
          <mxGeometry x="2720" y="450" width="120" height="80" as="geometry" />
        </mxCell>
        <mxCell id="UZXCuOwnJwMjy4uVcCzj-88" value="" style="edgeStyle=orthogonalEdgeStyle;rounded=0;orthogonalLoop=1;jettySize=auto;html=1;" parent="1" source="UZXCuOwnJwMjy4uVcCzj-80" target="UZXCuOwnJwMjy4uVcCzj-87" edge="1">
          <mxGeometry relative="1" as="geometry" />
        </mxCell>
      </root>
    </mxGraphModel>
  </diagram>
  <diagram id="UTT0dMrCq2Jcaq76EfxQ" name="Page-4">
    <mxGraphModel dx="1908" dy="2070" grid="1" gridSize="10" guides="1" tooltips="1" connect="1" arrows="1" fold="1" page="1" pageScale="1" pageWidth="1600" pageHeight="900" background="none" math="0" shadow="0">
      <root>
        <mxCell id="0" />
        <mxCell id="1" parent="0" />
        <mxCell id="tOeFzv7Arn9FaO7b8f3k-30" value="" style="edgeStyle=orthogonalEdgeStyle;rounded=0;orthogonalLoop=1;jettySize=auto;html=1;" edge="1" parent="1">
          <mxGeometry relative="1" as="geometry">
            <mxPoint x="860" y="210" as="sourcePoint" />
            <mxPoint x="NaN" y="1520" as="targetPoint" />
          </mxGeometry>
        </mxCell>
        <mxCell id="tOeFzv7Arn9FaO7b8f3k-32" value="" style="edgeStyle=orthogonalEdgeStyle;rounded=0;orthogonalLoop=1;jettySize=auto;html=1;" edge="1" parent="1">
          <mxGeometry relative="1" as="geometry">
            <mxPoint x="800" y="240" as="sourcePoint" />
            <mxPoint x="NaN" y="1520" as="targetPoint" />
          </mxGeometry>
        </mxCell>
        <mxCell id="tOeFzv7Arn9FaO7b8f3k-36" value="" style="edgeStyle=orthogonalEdgeStyle;rounded=0;orthogonalLoop=1;jettySize=auto;html=1;" edge="1" parent="1">
          <mxGeometry relative="1" as="geometry">
            <mxPoint x="800" y="240" as="sourcePoint" />
            <mxPoint x="NaN" y="1520" as="targetPoint" />
          </mxGeometry>
        </mxCell>
        <mxCell id="Hr1w00bYIEi-2v-oLjgg-68" value="&lt;h1&gt;Flowchart&lt;/h1&gt;" style="whiteSpace=wrap;html=1;rotation=90;strokeColor=none;fillColor=#ACB1D6;horizontal=1;" vertex="1" parent="1">
          <mxGeometry x="-477.5" y="355" width="1025" height="70" as="geometry" />
        </mxCell>
        <mxCell id="Hr1w00bYIEi-2v-oLjgg-71" value="&lt;h1&gt;Flowchart&lt;/h1&gt;" style="whiteSpace=wrap;html=1;rotation=90;strokeColor=none;fillColor=#ACB1D6;flipV=0;flipH=1;" vertex="1" parent="1">
          <mxGeometry x="1052.5" y="355" width="1025" height="70" as="geometry" />
        </mxCell>
        <mxCell id="sfo9rPuof_zj1Gn1glmR-1" value="Post tweet" style="whiteSpace=wrap;html=1;fillColor=#182E3E;strokeColor=#ACB1D6;fontColor=#FFFFFF;rounded=1;labelBackgroundColor=none;shadow=0;" vertex="1" parent="1">
          <mxGeometry x="870" y="76.5" width="120" height="60" as="geometry" />
        </mxCell>
        <mxCell id="sfo9rPuof_zj1Gn1glmR-2" value="" style="edgeStyle=orthogonalEdgeStyle;rounded=0;orthogonalLoop=1;jettySize=auto;html=1;" edge="1" parent="1" source="tOeFzv7Arn9FaO7b8f3k-41" target="sfo9rPuof_zj1Gn1glmR-1">
          <mxGeometry relative="1" as="geometry" />
        </mxCell>
        <mxCell id="sfo9rPuof_zj1Gn1glmR-13" value="Yes" style="edgeLabel;html=1;align=center;verticalAlign=middle;resizable=0;points=[];" vertex="1" connectable="0" parent="sfo9rPuof_zj1Gn1glmR-2">
          <mxGeometry x="-0.05" y="-2" relative="1" as="geometry">
            <mxPoint x="-1" as="offset" />
          </mxGeometry>
        </mxCell>
        <mxCell id="sfo9rPuof_zj1Gn1glmR-3" value="Post picture" style="whiteSpace=wrap;html=1;fillColor=#182E3E;strokeColor=#ACB1D6;fontColor=#FFFFFF;rounded=1;labelBackgroundColor=none;shadow=0;" vertex="1" parent="1">
          <mxGeometry x="870" y="206.5" width="120" height="60" as="geometry" />
        </mxCell>
        <mxCell id="sfo9rPuof_zj1Gn1glmR-4" value="" style="edgeStyle=orthogonalEdgeStyle;rounded=0;orthogonalLoop=1;jettySize=auto;html=1;" edge="1" parent="1" source="tOeFzv7Arn9FaO7b8f3k-43" target="sfo9rPuof_zj1Gn1glmR-3">
          <mxGeometry relative="1" as="geometry" />
        </mxCell>
        <mxCell id="sfo9rPuof_zj1Gn1glmR-14" value="Yes" style="edgeLabel;html=1;align=center;verticalAlign=middle;resizable=0;points=[];" vertex="1" connectable="0" parent="sfo9rPuof_zj1Gn1glmR-4">
          <mxGeometry x="-0.1278" relative="1" as="geometry">
            <mxPoint as="offset" />
          </mxGeometry>
        </mxCell>
        <mxCell id="sfo9rPuof_zj1Gn1glmR-5" value="Like tweet" style="whiteSpace=wrap;html=1;fillColor=#182E3E;strokeColor=#ACB1D6;fontColor=#FFFFFF;rounded=1;labelBackgroundColor=none;shadow=0;" vertex="1" parent="1">
          <mxGeometry x="870" y="336.5" width="120" height="60" as="geometry" />
        </mxCell>
        <mxCell id="sfo9rPuof_zj1Gn1glmR-6" value="" style="edgeStyle=orthogonalEdgeStyle;rounded=0;orthogonalLoop=1;jettySize=auto;html=1;" edge="1" parent="1" source="tOeFzv7Arn9FaO7b8f3k-44" target="sfo9rPuof_zj1Gn1glmR-5">
          <mxGeometry relative="1" as="geometry" />
        </mxCell>
        <mxCell id="sfo9rPuof_zj1Gn1glmR-15" value="Yes" style="edgeLabel;html=1;align=center;verticalAlign=middle;resizable=0;points=[];" vertex="1" connectable="0" parent="sfo9rPuof_zj1Gn1glmR-6">
          <mxGeometry x="-0.0944" relative="1" as="geometry">
            <mxPoint as="offset" />
          </mxGeometry>
        </mxCell>
        <mxCell id="sfo9rPuof_zj1Gn1glmR-7" value="Leaderboard Page" style="whiteSpace=wrap;html=1;fillColor=#182E3E;strokeColor=#ACB1D6;fontColor=#FFFFFF;rounded=1;labelBackgroundColor=none;shadow=0;" vertex="1" parent="1">
          <mxGeometry x="870" y="466.5" width="120" height="60" as="geometry" />
        </mxCell>
        <mxCell id="sfo9rPuof_zj1Gn1glmR-8" value="" style="edgeStyle=orthogonalEdgeStyle;rounded=0;orthogonalLoop=1;jettySize=auto;html=1;" edge="1" parent="1" source="tOeFzv7Arn9FaO7b8f3k-45" target="sfo9rPuof_zj1Gn1glmR-7">
          <mxGeometry relative="1" as="geometry" />
        </mxCell>
        <mxCell id="sfo9rPuof_zj1Gn1glmR-16" value="Yes" style="edgeLabel;html=1;align=center;verticalAlign=middle;resizable=0;points=[];" vertex="1" connectable="0" parent="sfo9rPuof_zj1Gn1glmR-8">
          <mxGeometry x="-0.0611" relative="1" as="geometry">
            <mxPoint as="offset" />
          </mxGeometry>
        </mxCell>
        <mxCell id="sfo9rPuof_zj1Gn1glmR-9" value="Admin Panel Page" style="whiteSpace=wrap;html=1;fillColor=#182E3E;strokeColor=#ACB1D6;fontColor=#FFFFFF;rounded=1;labelBackgroundColor=none;shadow=0;" vertex="1" parent="1">
          <mxGeometry x="870" y="596.5" width="120" height="60" as="geometry" />
        </mxCell>
        <mxCell id="sfo9rPuof_zj1Gn1glmR-10" value="" style="edgeStyle=orthogonalEdgeStyle;rounded=0;orthogonalLoop=1;jettySize=auto;html=1;" edge="1" parent="1" source="tOeFzv7Arn9FaO7b8f3k-46" target="sfo9rPuof_zj1Gn1glmR-9">
          <mxGeometry relative="1" as="geometry" />
        </mxCell>
        <mxCell id="sfo9rPuof_zj1Gn1glmR-17" value="Yes" style="edgeLabel;html=1;align=center;verticalAlign=middle;resizable=0;points=[];" vertex="1" connectable="0" parent="sfo9rPuof_zj1Gn1glmR-10">
          <mxGeometry x="-0.0389" relative="1" as="geometry">
            <mxPoint as="offset" />
          </mxGeometry>
        </mxCell>
        <mxCell id="sfo9rPuof_zj1Gn1glmR-11" value="More tweet" style="whiteSpace=wrap;html=1;fillColor=#182E3E;strokeColor=#ACB1D6;fontColor=#FFFFFF;rounded=1;labelBackgroundColor=none;shadow=0;" vertex="1" parent="1">
          <mxGeometry x="870" y="729.5" width="120" height="60" as="geometry" />
        </mxCell>
        <mxCell id="sfo9rPuof_zj1Gn1glmR-12" value="" style="edgeStyle=orthogonalEdgeStyle;rounded=0;orthogonalLoop=1;jettySize=auto;html=1;" edge="1" parent="1" source="tOeFzv7Arn9FaO7b8f3k-47" target="sfo9rPuof_zj1Gn1glmR-11">
          <mxGeometry relative="1" as="geometry" />
        </mxCell>
        <mxCell id="sfo9rPuof_zj1Gn1glmR-18" value="Yes" style="edgeLabel;html=1;align=center;verticalAlign=middle;resizable=0;points=[];" vertex="1" connectable="0" parent="sfo9rPuof_zj1Gn1glmR-12">
          <mxGeometry x="-0.0944" relative="1" as="geometry">
            <mxPoint as="offset" />
          </mxGeometry>
        </mxCell>
        <mxCell id="tOeFzv7Arn9FaO7b8f3k-41" value="Post tweet?" style="rhombus;whiteSpace=wrap;html=1;fillColor=#182E3E;strokeColor=#ACB1D6;fontColor=#FFFFFF;rounded=1;labelBackgroundColor=none;shadow=0;" vertex="1" parent="1">
          <mxGeometry x="670" y="66.5" width="120" height="80" as="geometry" />
        </mxCell>
        <mxCell id="tOeFzv7Arn9FaO7b8f3k-43" value="Post picture?" style="rhombus;whiteSpace=wrap;html=1;fillColor=#182E3E;strokeColor=#ACB1D6;fontColor=#FFFFFF;rounded=1;labelBackgroundColor=none;shadow=0;" vertex="1" parent="1">
          <mxGeometry x="670" y="196.5" width="120" height="80" as="geometry" />
        </mxCell>
        <mxCell id="sfo9rPuof_zj1Gn1glmR-19" value="" style="edgeStyle=orthogonalEdgeStyle;rounded=0;orthogonalLoop=1;jettySize=auto;html=1;endArrow=none;endFill=0;" edge="1" parent="1" source="tOeFzv7Arn9FaO7b8f3k-41" target="tOeFzv7Arn9FaO7b8f3k-43">
          <mxGeometry relative="1" as="geometry" />
        </mxCell>
        <mxCell id="sfo9rPuof_zj1Gn1glmR-24" value="No" style="edgeLabel;html=1;align=center;verticalAlign=middle;resizable=0;points=[];" vertex="1" connectable="0" parent="sfo9rPuof_zj1Gn1glmR-19">
          <mxGeometry x="-0.7376" relative="1" as="geometry">
            <mxPoint y="20" as="offset" />
          </mxGeometry>
        </mxCell>
        <mxCell id="tOeFzv7Arn9FaO7b8f3k-44" value="Like tweet?" style="rhombus;whiteSpace=wrap;html=1;fillColor=#182E3E;strokeColor=#ACB1D6;fontColor=#FFFFFF;rounded=1;labelBackgroundColor=none;shadow=0;" vertex="1" parent="1">
          <mxGeometry x="670" y="326.5" width="120" height="80" as="geometry" />
        </mxCell>
        <mxCell id="sfo9rPuof_zj1Gn1glmR-20" value="" style="edgeStyle=orthogonalEdgeStyle;rounded=0;orthogonalLoop=1;jettySize=auto;html=1;endArrow=none;endFill=0;" edge="1" parent="1" source="tOeFzv7Arn9FaO7b8f3k-43" target="tOeFzv7Arn9FaO7b8f3k-44">
          <mxGeometry relative="1" as="geometry" />
        </mxCell>
        <mxCell id="sfo9rPuof_zj1Gn1glmR-25" value="No" style="edgeLabel;html=1;align=center;verticalAlign=middle;resizable=0;points=[];" vertex="1" connectable="0" parent="sfo9rPuof_zj1Gn1glmR-20">
          <mxGeometry x="-0.0667" relative="1" as="geometry">
            <mxPoint as="offset" />
          </mxGeometry>
        </mxCell>
        <mxCell id="tOeFzv7Arn9FaO7b8f3k-45" value="Want to see&lt;br&gt;active users?" style="rhombus;whiteSpace=wrap;html=1;fillColor=#182E3E;strokeColor=#ACB1D6;fontColor=#FFFFFF;rounded=1;labelBackgroundColor=none;shadow=0;" vertex="1" parent="1">
          <mxGeometry x="670" y="456.5" width="120" height="80" as="geometry" />
        </mxCell>
        <mxCell id="sfo9rPuof_zj1Gn1glmR-21" value="" style="edgeStyle=orthogonalEdgeStyle;rounded=0;orthogonalLoop=1;jettySize=auto;html=1;endArrow=none;endFill=0;" edge="1" parent="1" source="tOeFzv7Arn9FaO7b8f3k-44" target="tOeFzv7Arn9FaO7b8f3k-45">
          <mxGeometry relative="1" as="geometry" />
        </mxCell>
        <mxCell id="sfo9rPuof_zj1Gn1glmR-26" value="No" style="edgeLabel;html=1;align=center;verticalAlign=middle;resizable=0;points=[];" vertex="1" connectable="0" parent="sfo9rPuof_zj1Gn1glmR-21">
          <mxGeometry x="-0.0222" relative="1" as="geometry">
            <mxPoint as="offset" />
          </mxGeometry>
        </mxCell>
        <mxCell id="tOeFzv7Arn9FaO7b8f3k-46" value="Want to go to&lt;br&gt;Admin Panel?" style="rhombus;whiteSpace=wrap;html=1;fillColor=#182E3E;strokeColor=#ACB1D6;fontColor=#FFFFFF;rounded=1;labelBackgroundColor=none;shadow=0;" vertex="1" parent="1">
          <mxGeometry x="670" y="586.5" width="120" height="80" as="geometry" />
        </mxCell>
        <mxCell id="sfo9rPuof_zj1Gn1glmR-22" value="" style="edgeStyle=orthogonalEdgeStyle;rounded=0;orthogonalLoop=1;jettySize=auto;html=1;endArrow=none;endFill=0;" edge="1" parent="1" source="tOeFzv7Arn9FaO7b8f3k-45" target="tOeFzv7Arn9FaO7b8f3k-46">
          <mxGeometry relative="1" as="geometry" />
        </mxCell>
        <mxCell id="sfo9rPuof_zj1Gn1glmR-28" value="No" style="edgeLabel;html=1;align=center;verticalAlign=middle;resizable=0;points=[];" vertex="1" connectable="0" parent="sfo9rPuof_zj1Gn1glmR-22">
          <mxGeometry x="-0.037" y="-1" relative="1" as="geometry">
            <mxPoint as="offset" />
          </mxGeometry>
        </mxCell>
        <mxCell id="tOeFzv7Arn9FaO7b8f3k-47" value="See more tweet?" style="rhombus;whiteSpace=wrap;html=1;fillColor=#182E3E;strokeColor=#ACB1D6;fontColor=#FFFFFF;rounded=1;labelBackgroundColor=none;shadow=0;" vertex="1" parent="1">
          <mxGeometry x="670" y="719.5" width="120" height="80" as="geometry" />
        </mxCell>
        <mxCell id="sfo9rPuof_zj1Gn1glmR-23" value="" style="edgeStyle=orthogonalEdgeStyle;rounded=0;orthogonalLoop=1;jettySize=auto;html=1;endArrow=none;endFill=0;" edge="1" parent="1" source="tOeFzv7Arn9FaO7b8f3k-46" target="tOeFzv7Arn9FaO7b8f3k-47">
          <mxGeometry relative="1" as="geometry" />
        </mxCell>
        <mxCell id="sfo9rPuof_zj1Gn1glmR-29" value="No" style="edgeLabel;html=1;align=center;verticalAlign=middle;resizable=0;points=[];" vertex="1" connectable="0" parent="sfo9rPuof_zj1Gn1glmR-23">
          <mxGeometry x="-0.0217" relative="1" as="geometry">
            <mxPoint as="offset" />
          </mxGeometry>
        </mxCell>
        <mxCell id="sfo9rPuof_zj1Gn1glmR-38" value="Post success?" style="rhombus;whiteSpace=wrap;html=1;fillColor=#182E3E;strokeColor=#ACB1D6;fontColor=#FFFFFF;rounded=1;labelBackgroundColor=none;shadow=0;" vertex="1" parent="1">
          <mxGeometry x="1090" y="66.5" width="120" height="80" as="geometry" />
        </mxCell>
        <mxCell id="sfo9rPuof_zj1Gn1glmR-39" value="" style="edgeStyle=orthogonalEdgeStyle;rounded=0;orthogonalLoop=1;jettySize=auto;html=1;" edge="1" parent="1" source="sfo9rPuof_zj1Gn1glmR-1" target="sfo9rPuof_zj1Gn1glmR-38">
          <mxGeometry relative="1" as="geometry" />
        </mxCell>
        <mxCell id="Hr1w00bYIEi-2v-oLjgg-55" style="edgeStyle=orthogonalEdgeStyle;rounded=0;orthogonalLoop=1;jettySize=auto;html=1;exitX=0.5;exitY=0;exitDx=0;exitDy=0;endArrow=none;endFill=0;" edge="1" parent="1" source="sfo9rPuof_zj1Gn1glmR-40">
          <mxGeometry relative="1" as="geometry">
            <mxPoint x="1460" y="150" as="targetPoint" />
            <Array as="points">
              <mxPoint x="1150" y="170" />
              <mxPoint x="1460" y="170" />
            </Array>
          </mxGeometry>
        </mxCell>
        <mxCell id="Hr1w00bYIEi-2v-oLjgg-57" value="Yes" style="edgeLabel;html=1;align=center;verticalAlign=middle;resizable=0;points=[];" vertex="1" connectable="0" parent="Hr1w00bYIEi-2v-oLjgg-55">
          <mxGeometry x="-0.9521" relative="1" as="geometry">
            <mxPoint y="-4" as="offset" />
          </mxGeometry>
        </mxCell>
        <mxCell id="sfo9rPuof_zj1Gn1glmR-40" value="Post success?" style="rhombus;whiteSpace=wrap;html=1;fillColor=#182E3E;strokeColor=#ACB1D6;fontColor=#FFFFFF;rounded=1;labelBackgroundColor=none;shadow=0;" vertex="1" parent="1">
          <mxGeometry x="1090" y="196.5" width="120" height="80" as="geometry" />
        </mxCell>
        <mxCell id="sfo9rPuof_zj1Gn1glmR-41" value="" style="edgeStyle=orthogonalEdgeStyle;rounded=0;orthogonalLoop=1;jettySize=auto;html=1;" edge="1" parent="1" source="sfo9rPuof_zj1Gn1glmR-3" target="sfo9rPuof_zj1Gn1glmR-40">
          <mxGeometry relative="1" as="geometry" />
        </mxCell>
        <mxCell id="Hr1w00bYIEi-2v-oLjgg-58" style="rounded=0;orthogonalLoop=1;jettySize=auto;html=1;exitX=0.5;exitY=0;exitDx=0;exitDy=0;endArrow=none;endFill=0;edgeStyle=orthogonalEdgeStyle;elbow=vertical;" edge="1" parent="1" source="sfo9rPuof_zj1Gn1glmR-42">
          <mxGeometry relative="1" as="geometry">
            <mxPoint x="1460" y="280" as="targetPoint" />
            <Array as="points">
              <mxPoint x="1150" y="300" />
              <mxPoint x="1460" y="300" />
            </Array>
          </mxGeometry>
        </mxCell>
        <mxCell id="Hr1w00bYIEi-2v-oLjgg-59" value="Yes" style="edgeLabel;html=1;align=center;verticalAlign=middle;resizable=0;points=[];" vertex="1" connectable="0" parent="Hr1w00bYIEi-2v-oLjgg-58">
          <mxGeometry x="-0.9366" relative="1" as="geometry">
            <mxPoint y="-2" as="offset" />
          </mxGeometry>
        </mxCell>
        <mxCell id="sfo9rPuof_zj1Gn1glmR-42" value="Like tweet&lt;br&gt;success?" style="rhombus;whiteSpace=wrap;html=1;fillColor=#182E3E;strokeColor=#ACB1D6;fontColor=#FFFFFF;rounded=1;labelBackgroundColor=none;shadow=0;" vertex="1" parent="1">
          <mxGeometry x="1090" y="326.5" width="120" height="80" as="geometry" />
        </mxCell>
        <mxCell id="sfo9rPuof_zj1Gn1glmR-43" value="" style="edgeStyle=orthogonalEdgeStyle;rounded=0;orthogonalLoop=1;jettySize=auto;html=1;" edge="1" parent="1" source="sfo9rPuof_zj1Gn1glmR-5" target="sfo9rPuof_zj1Gn1glmR-42">
          <mxGeometry relative="1" as="geometry" />
        </mxCell>
        <mxCell id="Hr1w00bYIEi-2v-oLjgg-38" style="edgeStyle=orthogonalEdgeStyle;rounded=0;orthogonalLoop=1;jettySize=auto;html=1;exitX=0.5;exitY=1;exitDx=0;exitDy=0;entryX=0.5;entryY=1;entryDx=0;entryDy=0;" edge="1" parent="1" source="sfo9rPuof_zj1Gn1glmR-44" target="sfo9rPuof_zj1Gn1glmR-7">
          <mxGeometry relative="1" as="geometry">
            <Array as="points">
              <mxPoint x="1150" y="560" />
              <mxPoint x="930" y="560" />
            </Array>
          </mxGeometry>
        </mxCell>
        <mxCell id="Hr1w00bYIEi-2v-oLjgg-39" value="Yes" style="edgeLabel;html=1;align=center;verticalAlign=middle;resizable=0;points=[];" vertex="1" connectable="0" parent="Hr1w00bYIEi-2v-oLjgg-38">
          <mxGeometry x="-0.9208" relative="1" as="geometry">
            <mxPoint as="offset" />
          </mxGeometry>
        </mxCell>
        <mxCell id="sfo9rPuof_zj1Gn1glmR-44" value="Success?" style="rhombus;whiteSpace=wrap;html=1;fillColor=#182E3E;strokeColor=#ACB1D6;fontColor=#FFFFFF;rounded=1;labelBackgroundColor=none;shadow=0;" vertex="1" parent="1">
          <mxGeometry x="1090" y="456.5" width="120" height="80" as="geometry" />
        </mxCell>
        <mxCell id="sfo9rPuof_zj1Gn1glmR-45" value="" style="edgeStyle=orthogonalEdgeStyle;rounded=0;orthogonalLoop=1;jettySize=auto;html=1;" edge="1" parent="1" source="sfo9rPuof_zj1Gn1glmR-7" target="sfo9rPuof_zj1Gn1glmR-44">
          <mxGeometry relative="1" as="geometry" />
        </mxCell>
        <mxCell id="Hr1w00bYIEi-2v-oLjgg-43" style="edgeStyle=orthogonalEdgeStyle;rounded=0;orthogonalLoop=1;jettySize=auto;html=1;exitX=0.5;exitY=1;exitDx=0;exitDy=0;entryX=0.5;entryY=1;entryDx=0;entryDy=0;" edge="1" parent="1" source="sfo9rPuof_zj1Gn1glmR-46" target="sfo9rPuof_zj1Gn1glmR-9">
          <mxGeometry relative="1" as="geometry">
            <Array as="points">
              <mxPoint x="1150" y="690" />
              <mxPoint x="930" y="690" />
            </Array>
          </mxGeometry>
        </mxCell>
        <mxCell id="Hr1w00bYIEi-2v-oLjgg-44" value="Yes" style="edgeLabel;html=1;align=center;verticalAlign=middle;resizable=0;points=[];" vertex="1" connectable="0" parent="Hr1w00bYIEi-2v-oLjgg-43">
          <mxGeometry x="-0.9263" relative="1" as="geometry">
            <mxPoint as="offset" />
          </mxGeometry>
        </mxCell>
        <mxCell id="sfo9rPuof_zj1Gn1glmR-46" value="Success?" style="rhombus;whiteSpace=wrap;html=1;fillColor=#182E3E;strokeColor=#ACB1D6;fontColor=#FFFFFF;rounded=1;labelBackgroundColor=none;shadow=0;" vertex="1" parent="1">
          <mxGeometry x="1090" y="586.5" width="120" height="80" as="geometry" />
        </mxCell>
        <mxCell id="sfo9rPuof_zj1Gn1glmR-47" value="" style="edgeStyle=orthogonalEdgeStyle;rounded=0;orthogonalLoop=1;jettySize=auto;html=1;" edge="1" parent="1" source="sfo9rPuof_zj1Gn1glmR-9" target="sfo9rPuof_zj1Gn1glmR-46">
          <mxGeometry relative="1" as="geometry" />
        </mxCell>
        <mxCell id="Hr1w00bYIEi-2v-oLjgg-65" style="edgeStyle=orthogonalEdgeStyle;rounded=0;orthogonalLoop=1;jettySize=auto;html=1;exitX=0.5;exitY=1;exitDx=0;exitDy=0;endArrow=none;endFill=0;" edge="1" parent="1" source="sfo9rPuof_zj1Gn1glmR-48">
          <mxGeometry relative="1" as="geometry">
            <mxPoint x="1150" y="840" as="targetPoint" />
            <Array as="points">
              <mxPoint x="1150" y="840" />
              <mxPoint x="1150" y="840" />
            </Array>
          </mxGeometry>
        </mxCell>
        <mxCell id="Hr1w00bYIEi-2v-oLjgg-66" value="Yes" style="edgeLabel;html=1;align=center;verticalAlign=middle;resizable=0;points=[];" vertex="1" connectable="0" parent="Hr1w00bYIEi-2v-oLjgg-65">
          <mxGeometry x="-0.9421" relative="1" as="geometry">
            <mxPoint y="18" as="offset" />
          </mxGeometry>
        </mxCell>
        <mxCell id="sfo9rPuof_zj1Gn1glmR-48" value="Get more tweet?" style="rhombus;whiteSpace=wrap;html=1;fillColor=#182E3E;strokeColor=#ACB1D6;fontColor=#FFFFFF;rounded=1;labelBackgroundColor=none;shadow=0;" vertex="1" parent="1">
          <mxGeometry x="1090" y="719.5" width="120" height="80" as="geometry" />
        </mxCell>
        <mxCell id="sfo9rPuof_zj1Gn1glmR-49" value="" style="edgeStyle=orthogonalEdgeStyle;rounded=0;orthogonalLoop=1;jettySize=auto;html=1;" edge="1" parent="1" source="sfo9rPuof_zj1Gn1glmR-11" target="sfo9rPuof_zj1Gn1glmR-48">
          <mxGeometry relative="1" as="geometry" />
        </mxCell>
        <mxCell id="Hr1w00bYIEi-2v-oLjgg-77" style="edgeStyle=orthogonalEdgeStyle;rounded=0;orthogonalLoop=1;jettySize=auto;html=1;exitX=1;exitY=0.5;exitDx=0;exitDy=0;endArrow=none;endFill=0;" edge="1" parent="1" source="Hr1w00bYIEi-2v-oLjgg-22">
          <mxGeometry relative="1" as="geometry">
            <mxPoint x="1460" y="106.65517241379314" as="targetPoint" />
          </mxGeometry>
        </mxCell>
        <mxCell id="Hr1w00bYIEi-2v-oLjgg-22" value="Show alert" style="whiteSpace=wrap;html=1;fillColor=#182E3E;strokeColor=#ACB1D6;fontColor=#FFFFFF;rounded=1;labelBackgroundColor=none;shadow=0;" vertex="1" parent="1">
          <mxGeometry x="1290" y="76.5" width="120" height="60" as="geometry" />
        </mxCell>
        <mxCell id="Hr1w00bYIEi-2v-oLjgg-23" value="" style="edgeStyle=orthogonalEdgeStyle;rounded=0;orthogonalLoop=1;jettySize=auto;html=1;" edge="1" parent="1" source="sfo9rPuof_zj1Gn1glmR-38" target="Hr1w00bYIEi-2v-oLjgg-22">
          <mxGeometry relative="1" as="geometry" />
        </mxCell>
        <mxCell id="Hr1w00bYIEi-2v-oLjgg-25" value="No" style="edgeLabel;html=1;align=center;verticalAlign=middle;resizable=0;points=[];" vertex="1" connectable="0" parent="Hr1w00bYIEi-2v-oLjgg-23">
          <mxGeometry x="-0.0833" relative="1" as="geometry">
            <mxPoint x="3" y="1" as="offset" />
          </mxGeometry>
        </mxCell>
        <mxCell id="Hr1w00bYIEi-2v-oLjgg-78" style="edgeStyle=orthogonalEdgeStyle;rounded=0;orthogonalLoop=1;jettySize=auto;html=1;exitX=1;exitY=0.5;exitDx=0;exitDy=0;endArrow=none;endFill=0;" edge="1" parent="1" source="Hr1w00bYIEi-2v-oLjgg-27">
          <mxGeometry relative="1" as="geometry">
            <mxPoint x="1460" y="236.66666666666669" as="targetPoint" />
          </mxGeometry>
        </mxCell>
        <mxCell id="Hr1w00bYIEi-2v-oLjgg-27" value="Show alert" style="whiteSpace=wrap;html=1;fillColor=#182E3E;strokeColor=#ACB1D6;fontColor=#FFFFFF;rounded=1;labelBackgroundColor=none;shadow=0;" vertex="1" parent="1">
          <mxGeometry x="1290" y="206.5" width="120" height="60" as="geometry" />
        </mxCell>
        <mxCell id="Hr1w00bYIEi-2v-oLjgg-75" style="edgeStyle=orthogonalEdgeStyle;rounded=0;orthogonalLoop=1;jettySize=auto;html=1;exitX=1;exitY=0.5;exitDx=0;exitDy=0;endArrow=none;endFill=0;" edge="1" parent="1" source="Hr1w00bYIEi-2v-oLjgg-31">
          <mxGeometry relative="1" as="geometry">
            <mxPoint x="1460" y="366.4" as="targetPoint" />
          </mxGeometry>
        </mxCell>
        <mxCell id="Hr1w00bYIEi-2v-oLjgg-31" value="Show alert" style="whiteSpace=wrap;html=1;fillColor=#182E3E;strokeColor=#ACB1D6;fontColor=#FFFFFF;rounded=1;labelBackgroundColor=none;shadow=0;" vertex="1" parent="1">
          <mxGeometry x="1290" y="336.5" width="120" height="60" as="geometry" />
        </mxCell>
        <mxCell id="Hr1w00bYIEi-2v-oLjgg-62" style="edgeStyle=orthogonalEdgeStyle;rounded=0;orthogonalLoop=1;jettySize=auto;html=1;exitX=1;exitY=0.5;exitDx=0;exitDy=0;endArrow=none;endFill=0;" edge="1" parent="1" source="Hr1w00bYIEi-2v-oLjgg-35">
          <mxGeometry relative="1" as="geometry">
            <mxPoint x="1460" y="496.5581395348837" as="targetPoint" />
          </mxGeometry>
        </mxCell>
        <mxCell id="Hr1w00bYIEi-2v-oLjgg-35" value="Show alert" style="whiteSpace=wrap;html=1;fillColor=#182E3E;strokeColor=#ACB1D6;fontColor=#FFFFFF;rounded=1;labelBackgroundColor=none;shadow=0;" vertex="1" parent="1">
          <mxGeometry x="1290" y="466.5" width="120" height="60" as="geometry" />
        </mxCell>
        <mxCell id="Hr1w00bYIEi-2v-oLjgg-64" style="edgeStyle=orthogonalEdgeStyle;rounded=0;orthogonalLoop=1;jettySize=auto;html=1;exitX=1;exitY=0.5;exitDx=0;exitDy=0;endArrow=none;endFill=0;" edge="1" parent="1" source="Hr1w00bYIEi-2v-oLjgg-40">
          <mxGeometry relative="1" as="geometry">
            <mxPoint x="1460" y="626.6666666666666" as="targetPoint" />
          </mxGeometry>
        </mxCell>
        <mxCell id="Hr1w00bYIEi-2v-oLjgg-40" value="Show alert" style="whiteSpace=wrap;html=1;fillColor=#182E3E;strokeColor=#ACB1D6;fontColor=#FFFFFF;rounded=1;labelBackgroundColor=none;shadow=0;" vertex="1" parent="1">
          <mxGeometry x="1290" y="596.5" width="120" height="60" as="geometry" />
        </mxCell>
        <mxCell id="Hr1w00bYIEi-2v-oLjgg-76" style="edgeStyle=orthogonalEdgeStyle;rounded=0;orthogonalLoop=1;jettySize=auto;html=1;exitX=1;exitY=0.5;exitDx=0;exitDy=0;endArrow=none;endFill=0;" edge="1" parent="1" source="Hr1w00bYIEi-2v-oLjgg-46">
          <mxGeometry relative="1" as="geometry">
            <mxPoint x="1460" y="759.6" as="targetPoint" />
          </mxGeometry>
        </mxCell>
        <mxCell id="Hr1w00bYIEi-2v-oLjgg-46" value="Show alert" style="whiteSpace=wrap;html=1;fillColor=#182E3E;strokeColor=#ACB1D6;fontColor=#FFFFFF;rounded=1;labelBackgroundColor=none;shadow=0;" vertex="1" parent="1">
          <mxGeometry x="1290" y="729.5" width="120" height="60" as="geometry" />
        </mxCell>
        <mxCell id="Hr1w00bYIEi-2v-oLjgg-28" value="" style="edgeStyle=orthogonalEdgeStyle;rounded=0;orthogonalLoop=1;jettySize=auto;html=1;" edge="1" parent="1" source="sfo9rPuof_zj1Gn1glmR-40" target="Hr1w00bYIEi-2v-oLjgg-27">
          <mxGeometry relative="1" as="geometry" />
        </mxCell>
        <mxCell id="Hr1w00bYIEi-2v-oLjgg-29" value="No" style="edgeLabel;html=1;align=center;verticalAlign=middle;resizable=0;points=[];" vertex="1" connectable="0" parent="Hr1w00bYIEi-2v-oLjgg-28">
          <mxGeometry x="-0.0625" y="-1" relative="1" as="geometry">
            <mxPoint x="3" y="-1" as="offset" />
          </mxGeometry>
        </mxCell>
        <mxCell id="Hr1w00bYIEi-2v-oLjgg-32" value="" style="edgeStyle=orthogonalEdgeStyle;rounded=0;orthogonalLoop=1;jettySize=auto;html=1;" edge="1" parent="1" source="sfo9rPuof_zj1Gn1glmR-42" target="Hr1w00bYIEi-2v-oLjgg-31">
          <mxGeometry relative="1" as="geometry" />
        </mxCell>
        <mxCell id="Hr1w00bYIEi-2v-oLjgg-33" value="No" style="edgeLabel;html=1;align=center;verticalAlign=middle;resizable=0;points=[];" vertex="1" connectable="0" parent="Hr1w00bYIEi-2v-oLjgg-32">
          <mxGeometry x="-0.0833" relative="1" as="geometry">
            <mxPoint x="3" as="offset" />
          </mxGeometry>
        </mxCell>
        <mxCell id="Hr1w00bYIEi-2v-oLjgg-36" value="" style="edgeStyle=orthogonalEdgeStyle;rounded=0;orthogonalLoop=1;jettySize=auto;html=1;" edge="1" parent="1" source="sfo9rPuof_zj1Gn1glmR-44" target="Hr1w00bYIEi-2v-oLjgg-35">
          <mxGeometry relative="1" as="geometry" />
        </mxCell>
        <mxCell id="Hr1w00bYIEi-2v-oLjgg-37" value="No" style="edgeLabel;html=1;align=center;verticalAlign=middle;resizable=0;points=[];" vertex="1" connectable="0" parent="Hr1w00bYIEi-2v-oLjgg-36">
          <mxGeometry x="-0.0833" relative="1" as="geometry">
            <mxPoint x="3" as="offset" />
          </mxGeometry>
        </mxCell>
        <mxCell id="Hr1w00bYIEi-2v-oLjgg-41" value="" style="edgeStyle=orthogonalEdgeStyle;rounded=0;orthogonalLoop=1;jettySize=auto;html=1;" edge="1" parent="1" source="sfo9rPuof_zj1Gn1glmR-46" target="Hr1w00bYIEi-2v-oLjgg-40">
          <mxGeometry relative="1" as="geometry" />
        </mxCell>
        <mxCell id="Hr1w00bYIEi-2v-oLjgg-45" value="No" style="edgeLabel;html=1;align=center;verticalAlign=middle;resizable=0;points=[];" vertex="1" connectable="0" parent="Hr1w00bYIEi-2v-oLjgg-41">
          <mxGeometry x="-0.1138" y="-1" relative="1" as="geometry">
            <mxPoint x="5" y="-1" as="offset" />
          </mxGeometry>
        </mxCell>
        <mxCell id="Hr1w00bYIEi-2v-oLjgg-48" value="" style="edgeStyle=orthogonalEdgeStyle;rounded=0;orthogonalLoop=1;jettySize=auto;html=1;" edge="1" parent="1" source="sfo9rPuof_zj1Gn1glmR-48" target="Hr1w00bYIEi-2v-oLjgg-46">
          <mxGeometry relative="1" as="geometry" />
        </mxCell>
        <mxCell id="Hr1w00bYIEi-2v-oLjgg-49" value="No" style="edgeLabel;html=1;align=center;verticalAlign=middle;resizable=0;points=[];" vertex="1" connectable="0" parent="Hr1w00bYIEi-2v-oLjgg-48">
          <mxGeometry x="-0.2" relative="1" as="geometry">
            <mxPoint x="8" as="offset" />
          </mxGeometry>
        </mxCell>
        <mxCell id="Hr1w00bYIEi-2v-oLjgg-201" value="" style="edgeStyle=orthogonalEdgeStyle;rounded=0;orthogonalLoop=1;jettySize=auto;html=1;endArrow=none;endFill=0;" edge="1" parent="1" source="Hr1w00bYIEi-2v-oLjgg-193" target="tOeFzv7Arn9FaO7b8f3k-41">
          <mxGeometry relative="1" as="geometry" />
        </mxCell>
        <mxCell id="Hr1w00bYIEi-2v-oLjgg-202" value="No" style="edgeLabel;html=1;align=center;verticalAlign=middle;resizable=0;points=[];" vertex="1" connectable="0" parent="Hr1w00bYIEi-2v-oLjgg-201">
          <mxGeometry x="0.0558" relative="1" as="geometry">
            <mxPoint as="offset" />
          </mxGeometry>
        </mxCell>
        <mxCell id="Hr1w00bYIEi-2v-oLjgg-193" value="Logout?" style="rhombus;whiteSpace=wrap;html=1;fillColor=#182E3E;strokeColor=#ACB1D6;fontColor=#FFFFFF;rounded=1;labelBackgroundColor=none;shadow=0;" vertex="1" parent="1">
          <mxGeometry x="670" y="-60" width="120" height="80" as="geometry" />
        </mxCell>
        <mxCell id="Hr1w00bYIEi-2v-oLjgg-194" value="Logout" style="whiteSpace=wrap;html=1;fillColor=#182E3E;strokeColor=#ACB1D6;fontColor=#FFFFFF;rounded=1;labelBackgroundColor=none;shadow=0;" vertex="1" parent="1">
          <mxGeometry x="870" y="-50" width="120" height="60" as="geometry" />
        </mxCell>
        <mxCell id="Hr1w00bYIEi-2v-oLjgg-195" value="" style="edgeStyle=orthogonalEdgeStyle;rounded=0;orthogonalLoop=1;jettySize=auto;html=1;" edge="1" parent="1" source="Hr1w00bYIEi-2v-oLjgg-193" target="Hr1w00bYIEi-2v-oLjgg-194">
          <mxGeometry relative="1" as="geometry" />
        </mxCell>
        <mxCell id="Hr1w00bYIEi-2v-oLjgg-200" value="Yes" style="edgeLabel;html=1;align=center;verticalAlign=middle;resizable=0;points=[];" vertex="1" connectable="0" parent="Hr1w00bYIEi-2v-oLjgg-195">
          <mxGeometry x="-0.05" relative="1" as="geometry">
            <mxPoint as="offset" />
          </mxGeometry>
        </mxCell>
        <mxCell id="Hr1w00bYIEi-2v-oLjgg-196" value="&lt;font color=&quot;#000000&quot;&gt;Finish&lt;/font&gt;" style="whiteSpace=wrap;html=1;fillColor=#F19C99;strokeColor=#ACB1D6;fontColor=#FFFFFF;rounded=1;labelBackgroundColor=none;shadow=0;fontStyle=1" vertex="1" parent="1">
          <mxGeometry x="1090" y="-50" width="120" height="60" as="geometry" />
        </mxCell>
        <mxCell id="Hr1w00bYIEi-2v-oLjgg-197" value="" style="edgeStyle=orthogonalEdgeStyle;rounded=0;orthogonalLoop=1;jettySize=auto;html=1;" edge="1" parent="1" source="Hr1w00bYIEi-2v-oLjgg-194" target="Hr1w00bYIEi-2v-oLjgg-196">
          <mxGeometry relative="1" as="geometry" />
        </mxCell>
        <mxCell id="Hr1w00bYIEi-2v-oLjgg-198" style="edgeStyle=orthogonalEdgeStyle;rounded=0;orthogonalLoop=1;jettySize=auto;html=1;exitX=1;exitY=0.5;exitDx=0;exitDy=0;entryX=0;entryY=0.5;entryDx=0;entryDy=0;" edge="1" parent="1" source="tOeFzv7Arn9FaO7b8f3k-21" target="Hr1w00bYIEi-2v-oLjgg-193">
          <mxGeometry relative="1" as="geometry" />
        </mxCell>
        <mxCell id="tOeFzv7Arn9FaO7b8f3k-2" value="&lt;font color=&quot;#000000&quot;&gt;Start&lt;/font&gt;" style="rounded=1;whiteSpace=wrap;html=1;labelBackgroundColor=none;fillColor=#6d8764;strokeColor=#3A5431;fontColor=#ffffff;fontStyle=1" vertex="1" parent="1">
          <mxGeometry x="175" y="47" width="120" height="60" as="geometry" />
        </mxCell>
        <mxCell id="tOeFzv7Arn9FaO7b8f3k-3" value="Have an&lt;br&gt;account?" style="rhombus;html=1;rounded=1;whiteSpace=wrap;labelBackgroundColor=none;fillColor=#182E3E;strokeColor=#ACB1D6;fontColor=#FFFFFF;" vertex="1" parent="1">
          <mxGeometry x="175" y="177" width="120" height="80" as="geometry" />
        </mxCell>
        <mxCell id="tOeFzv7Arn9FaO7b8f3k-4" value="" style="edgeStyle=orthogonalEdgeStyle;rounded=0;orthogonalLoop=1;jettySize=auto;html=1;labelBackgroundColor=none;fontColor=default;strokeColor=#23445D;" edge="1" parent="1" source="tOeFzv7Arn9FaO7b8f3k-2" target="tOeFzv7Arn9FaO7b8f3k-3">
          <mxGeometry relative="1" as="geometry" />
        </mxCell>
        <mxCell id="tOeFzv7Arn9FaO7b8f3k-5" value="Sign In" style="whiteSpace=wrap;html=1;rounded=1;labelBackgroundColor=none;fillColor=#182E3E;strokeColor=#ACB1D6;fontColor=#FFFFFF;" vertex="1" parent="1">
          <mxGeometry x="175" y="327" width="120" height="60" as="geometry" />
        </mxCell>
        <mxCell id="tOeFzv7Arn9FaO7b8f3k-6" value="" style="edgeStyle=orthogonalEdgeStyle;rounded=0;orthogonalLoop=1;jettySize=auto;html=1;labelBackgroundColor=none;fontColor=default;strokeColor=#23445D;" edge="1" parent="1" source="tOeFzv7Arn9FaO7b8f3k-3" target="tOeFzv7Arn9FaO7b8f3k-5">
          <mxGeometry relative="1" as="geometry" />
        </mxCell>
        <mxCell id="sfo9rPuof_zj1Gn1glmR-35" value="Yes" style="edgeLabel;html=1;align=center;verticalAlign=middle;resizable=0;points=[];" vertex="1" connectable="0" parent="tOeFzv7Arn9FaO7b8f3k-6">
          <mxGeometry x="-0.081" relative="1" as="geometry">
            <mxPoint as="offset" />
          </mxGeometry>
        </mxCell>
        <mxCell id="tOeFzv7Arn9FaO7b8f3k-8" value="Sign Up" style="whiteSpace=wrap;html=1;rounded=1;labelBackgroundColor=none;fillColor=#182E3E;strokeColor=#ACB1D6;fontColor=#FFFFFF;" vertex="1" parent="1">
          <mxGeometry x="375" y="187" width="120" height="60" as="geometry" />
        </mxCell>
        <mxCell id="tOeFzv7Arn9FaO7b8f3k-9" value="" style="edgeStyle=orthogonalEdgeStyle;rounded=0;orthogonalLoop=1;jettySize=auto;html=1;labelBackgroundColor=none;fontColor=default;strokeColor=#23445D;" edge="1" parent="1" source="tOeFzv7Arn9FaO7b8f3k-3" target="tOeFzv7Arn9FaO7b8f3k-8">
          <mxGeometry relative="1" as="geometry" />
        </mxCell>
        <mxCell id="sfo9rPuof_zj1Gn1glmR-36" value="No" style="edgeLabel;html=1;align=center;verticalAlign=middle;resizable=0;points=[];" vertex="1" connectable="0" parent="tOeFzv7Arn9FaO7b8f3k-9">
          <mxGeometry x="-0.1" y="-1" relative="1" as="geometry">
            <mxPoint as="offset" />
          </mxGeometry>
        </mxCell>
        <mxCell id="tOeFzv7Arn9FaO7b8f3k-11" value="" style="edgeStyle=orthogonalEdgeStyle;rounded=0;orthogonalLoop=1;jettySize=auto;html=1;labelBackgroundColor=none;fontColor=default;strokeColor=#23445D;" edge="1" parent="1" source="tOeFzv7Arn9FaO7b8f3k-15" target="tOeFzv7Arn9FaO7b8f3k-5">
          <mxGeometry relative="1" as="geometry" />
        </mxCell>
        <mxCell id="sfo9rPuof_zj1Gn1glmR-34" value="Yes" style="edgeLabel;html=1;align=center;verticalAlign=middle;resizable=0;points=[];" vertex="1" connectable="0" parent="tOeFzv7Arn9FaO7b8f3k-11">
          <mxGeometry x="-0.1083" relative="1" as="geometry">
            <mxPoint x="-4" as="offset" />
          </mxGeometry>
        </mxCell>
        <mxCell id="tOeFzv7Arn9FaO7b8f3k-13" style="edgeStyle=orthogonalEdgeStyle;rounded=0;orthogonalLoop=1;jettySize=auto;html=1;entryX=1;entryY=0.5;entryDx=0;entryDy=0;labelBackgroundColor=none;fontColor=default;strokeColor=#23445D;" edge="1" parent="1" source="tOeFzv7Arn9FaO7b8f3k-15" target="tOeFzv7Arn9FaO7b8f3k-8">
          <mxGeometry relative="1" as="geometry">
            <Array as="points">
              <mxPoint x="530" y="357" />
              <mxPoint x="530" y="217" />
            </Array>
          </mxGeometry>
        </mxCell>
        <mxCell id="sfo9rPuof_zj1Gn1glmR-37" value="No" style="edgeLabel;html=1;align=center;verticalAlign=middle;resizable=0;points=[];" vertex="1" connectable="0" parent="tOeFzv7Arn9FaO7b8f3k-13">
          <mxGeometry x="-0.8184" relative="1" as="geometry">
            <mxPoint x="-2" as="offset" />
          </mxGeometry>
        </mxCell>
        <mxCell id="tOeFzv7Arn9FaO7b8f3k-15" value="Sign Up&lt;br&gt;success?" style="rhombus;whiteSpace=wrap;html=1;rounded=1;labelBackgroundColor=none;fillColor=#182E3E;strokeColor=#ACB1D6;fontColor=#FFFFFF;" vertex="1" parent="1">
          <mxGeometry x="375" y="317" width="120" height="80" as="geometry" />
        </mxCell>
        <mxCell id="tOeFzv7Arn9FaO7b8f3k-16" value="" style="edgeStyle=orthogonalEdgeStyle;rounded=0;orthogonalLoop=1;jettySize=auto;html=1;labelBackgroundColor=none;fontColor=default;strokeColor=#23445D;" edge="1" parent="1" source="tOeFzv7Arn9FaO7b8f3k-8" target="tOeFzv7Arn9FaO7b8f3k-15">
          <mxGeometry relative="1" as="geometry" />
        </mxCell>
        <mxCell id="tOeFzv7Arn9FaO7b8f3k-17" style="edgeStyle=orthogonalEdgeStyle;rounded=0;orthogonalLoop=1;jettySize=auto;html=1;entryX=0;entryY=0.5;entryDx=0;entryDy=0;labelBackgroundColor=none;fontColor=default;strokeColor=#23445D;" edge="1" parent="1" source="tOeFzv7Arn9FaO7b8f3k-19" target="tOeFzv7Arn9FaO7b8f3k-5">
          <mxGeometry relative="1" as="geometry">
            <Array as="points">
              <mxPoint x="140" y="497" />
              <mxPoint x="140" y="357" />
            </Array>
          </mxGeometry>
        </mxCell>
        <mxCell id="sfo9rPuof_zj1Gn1glmR-33" value="No" style="edgeLabel;html=1;align=center;verticalAlign=middle;resizable=0;points=[];" vertex="1" connectable="0" parent="tOeFzv7Arn9FaO7b8f3k-17">
          <mxGeometry x="-0.8317" y="1" relative="1" as="geometry">
            <mxPoint as="offset" />
          </mxGeometry>
        </mxCell>
        <mxCell id="tOeFzv7Arn9FaO7b8f3k-19" value="Sign In&lt;br&gt;success?" style="rhombus;whiteSpace=wrap;html=1;rounded=1;labelBackgroundColor=none;fillColor=#182E3E;strokeColor=#ACB1D6;fontColor=#FFFFFF;" vertex="1" parent="1">
          <mxGeometry x="175" y="457" width="120" height="80" as="geometry" />
        </mxCell>
        <mxCell id="tOeFzv7Arn9FaO7b8f3k-20" value="" style="edgeStyle=orthogonalEdgeStyle;rounded=0;orthogonalLoop=1;jettySize=auto;html=1;labelBackgroundColor=none;fontColor=default;strokeColor=#23445D;" edge="1" parent="1" source="tOeFzv7Arn9FaO7b8f3k-5" target="tOeFzv7Arn9FaO7b8f3k-19">
          <mxGeometry relative="1" as="geometry" />
        </mxCell>
        <mxCell id="tOeFzv7Arn9FaO7b8f3k-21" value="Home Page" style="whiteSpace=wrap;html=1;rounded=1;labelBackgroundColor=none;fillColor=#182E3E;strokeColor=#ACB1D6;fontColor=#FFFFFF;" vertex="1" parent="1">
          <mxGeometry x="375" y="467" width="120" height="60" as="geometry" />
        </mxCell>
        <mxCell id="tOeFzv7Arn9FaO7b8f3k-67" style="edgeStyle=orthogonalEdgeStyle;rounded=0;orthogonalLoop=1;jettySize=auto;html=1;exitX=1;exitY=0.5;exitDx=0;exitDy=0;entryX=0;entryY=0.5;entryDx=0;entryDy=0;" edge="1" parent="1" source="tOeFzv7Arn9FaO7b8f3k-21" target="tOeFzv7Arn9FaO7b8f3k-41">
          <mxGeometry relative="1" as="geometry" />
        </mxCell>
        <mxCell id="tOeFzv7Arn9FaO7b8f3k-22" value="" style="edgeStyle=orthogonalEdgeStyle;rounded=0;orthogonalLoop=1;jettySize=auto;html=1;labelBackgroundColor=none;fontColor=default;strokeColor=#23445D;" edge="1" parent="1" source="tOeFzv7Arn9FaO7b8f3k-19" target="tOeFzv7Arn9FaO7b8f3k-21">
          <mxGeometry relative="1" as="geometry" />
        </mxCell>
        <mxCell id="sfo9rPuof_zj1Gn1glmR-32" value="Yes" style="edgeLabel;html=1;align=center;verticalAlign=middle;resizable=0;points=[];" vertex="1" connectable="0" parent="tOeFzv7Arn9FaO7b8f3k-22">
          <mxGeometry x="-0.175" y="-1" relative="1" as="geometry">
            <mxPoint x="7" y="-1" as="offset" />
          </mxGeometry>
        </mxCell>
        <mxCell id="tOeFzv7Arn9FaO7b8f3k-69" style="edgeStyle=orthogonalEdgeStyle;rounded=0;orthogonalLoop=1;jettySize=auto;html=1;exitX=1;exitY=0.5;exitDx=0;exitDy=0;entryX=0;entryY=0.5;entryDx=0;entryDy=0;" edge="1" parent="1" source="tOeFzv7Arn9FaO7b8f3k-21" target="tOeFzv7Arn9FaO7b8f3k-43">
          <mxGeometry relative="1" as="geometry" />
        </mxCell>
        <mxCell id="tOeFzv7Arn9FaO7b8f3k-70" style="edgeStyle=orthogonalEdgeStyle;rounded=0;orthogonalLoop=1;jettySize=auto;html=1;exitX=1;exitY=0.5;exitDx=0;exitDy=0;entryX=0;entryY=0.5;entryDx=0;entryDy=0;" edge="1" parent="1" source="tOeFzv7Arn9FaO7b8f3k-21" target="tOeFzv7Arn9FaO7b8f3k-44">
          <mxGeometry relative="1" as="geometry" />
        </mxCell>
        <mxCell id="tOeFzv7Arn9FaO7b8f3k-71" style="edgeStyle=orthogonalEdgeStyle;rounded=0;orthogonalLoop=1;jettySize=auto;html=1;exitX=1;exitY=0.5;exitDx=0;exitDy=0;entryX=0;entryY=0.5;entryDx=0;entryDy=0;" edge="1" parent="1" source="tOeFzv7Arn9FaO7b8f3k-21" target="tOeFzv7Arn9FaO7b8f3k-45">
          <mxGeometry relative="1" as="geometry" />
        </mxCell>
        <mxCell id="tOeFzv7Arn9FaO7b8f3k-72" style="edgeStyle=orthogonalEdgeStyle;rounded=0;orthogonalLoop=1;jettySize=auto;html=1;exitX=1;exitY=0.5;exitDx=0;exitDy=0;entryX=0;entryY=0.5;entryDx=0;entryDy=0;" edge="1" parent="1" source="tOeFzv7Arn9FaO7b8f3k-21" target="tOeFzv7Arn9FaO7b8f3k-46">
          <mxGeometry relative="1" as="geometry" />
        </mxCell>
        <mxCell id="tOeFzv7Arn9FaO7b8f3k-74" style="edgeStyle=orthogonalEdgeStyle;rounded=0;orthogonalLoop=1;jettySize=auto;html=1;exitX=1;exitY=0.5;exitDx=0;exitDy=0;entryX=0;entryY=0.5;entryDx=0;entryDy=0;" edge="1" parent="1" source="tOeFzv7Arn9FaO7b8f3k-21" target="tOeFzv7Arn9FaO7b8f3k-47">
          <mxGeometry relative="1" as="geometry" />
        </mxCell>
        <mxCell id="sfo9rPuof_zj1Gn1glmR-30" style="edgeStyle=orthogonalEdgeStyle;rounded=0;orthogonalLoop=1;jettySize=auto;html=1;exitX=0.5;exitY=1;exitDx=0;exitDy=0;entryX=0.5;entryY=1;entryDx=0;entryDy=0;" edge="1" parent="1" source="tOeFzv7Arn9FaO7b8f3k-47" target="tOeFzv7Arn9FaO7b8f3k-21">
          <mxGeometry relative="1" as="geometry">
            <Array as="points">
              <mxPoint x="730" y="840" />
              <mxPoint x="435" y="840" />
            </Array>
          </mxGeometry>
        </mxCell>
        <mxCell id="sfo9rPuof_zj1Gn1glmR-31" value="No" style="edgeLabel;html=1;align=center;verticalAlign=middle;resizable=0;points=[];" vertex="1" connectable="0" parent="sfo9rPuof_zj1Gn1glmR-30">
          <mxGeometry x="-0.9434" y="1" relative="1" as="geometry">
            <mxPoint y="-1" as="offset" />
          </mxGeometry>
        </mxCell>
        <mxCell id="Hr1w00bYIEi-2v-oLjgg-51" value="" style="edgeStyle=orthogonalEdgeStyle;rounded=0;orthogonalLoop=1;jettySize=auto;html=1;exitX=0.5;exitY=0;exitDx=0;exitDy=0;entryX=0.5;entryY=1;entryDx=0;entryDy=0;" edge="1" parent="1" source="sfo9rPuof_zj1Gn1glmR-38" target="tOeFzv7Arn9FaO7b8f3k-21">
          <mxGeometry relative="1" as="geometry">
            <Array as="points">
              <mxPoint x="1150" y="40" />
              <mxPoint x="1460" y="40" />
              <mxPoint x="1460" y="840" />
              <mxPoint x="435" y="840" />
            </Array>
          </mxGeometry>
        </mxCell>
        <mxCell id="Hr1w00bYIEi-2v-oLjgg-52" value="Yes" style="edgeLabel;html=1;align=center;verticalAlign=middle;resizable=0;points=[];" vertex="1" connectable="0" parent="Hr1w00bYIEi-2v-oLjgg-51">
          <mxGeometry x="-0.992" relative="1" as="geometry">
            <mxPoint y="-4" as="offset" />
          </mxGeometry>
        </mxCell>
      </root>
    </mxGraphModel>
  </diagram>
</mxfile>
